<svg xmlns="http://www.w3.org/2000/svg" width="621" height="617"><path fill="#fefefe" d="M0 0h621v617H0z"/><path fill="#fefdfb" d="M108 209.813c4.506 3.837 6.093 9.77 8 15.187q.81 2.126 1.625 4.25L119 233c1.82 5.076 1.82 5.076 4 10 .04 2.333.043 4.667 0 7h2v4h2l.533 1.617A978 978 0 0 0 133.5 273c2.012 5.712 3.993 11.43 5.87 17.188.61 1.878.61 1.878 1.63 3.812.04 2.333.043 4.667 0 7h2q1.007 2.904 2 5.813l1.125 3.269C147 313 147 313 147 316h2l.988 3.438 1.325 4.562.646 2.254a161 161 0 0 0 4.298 12.795c1.221 3.207 2.33 6.45 3.43 9.701l.682 1.957c1.124 3.328 1.631 5.73 1.631 9.293-6.68.326-12.19.585-18-3-1.25-2.125-1.25-2.125-2-5q-.808-2.283-1.625-4.562C139.264 344.264 139 342.49 139 339h-2l-.988-3.219-1.325-4.281-.646-2.11a204 204 0 0 0-4.28-12.376c-1.584-4.19-3.032-8.43-4.511-12.659l-.75-2.136-.738-2.106c-.781-2.167-1.614-4.31-2.45-6.457C120 290 120 290 120 287h-2l.219 2.027c1.457 15.083 1.4 28.458-3.219 42.973l-.84 2.648c-2.527 6.638-7.291 11.316-12.16 16.352l-2.375 2.875c-10.251 8.299-25.55 8.12-38.052 7.433-6.856-.82-11.206-4.466-15.483-9.601-6.692-9.444-7.117-18.45-6.09-29.707.916-4.207 2.395-8.014 4-12 .886-2.594 1.722-5.204 2.563-7.812 1.182-3.617 2.407-7.12 3.914-10.614 1.674-3.928 3.02-7.89 4.336-11.949a885 885 0 0 1 6.374-18.75l.72-2.04a531 531 0 0 1 3.581-9.8c1.56-4.138 3.043-8.301 4.512-12.472l.8-2.258a274 274 0 0 0 3.763-11.368c1.809-5.449 4.355-10.323 8.937-13.875 7.242-3.078 17.586-3.346 24.5.75"/><path fill="#fefefd" d="M292 208c57.192-1.033 57.192-1.033 74.813 15.188 5.539 6.02 9.88 13.537 10.187 21.812l.113 2.074c.286 8.609-.98 16.82-6.113 23.926l-1.324 1.89c-7.497 9.593-18.78 15.998-30.676 18.11.84 4.307 2.264 6.473 5.563 9.188 5.26 4.333 9.25 9.461 13.437 14.812l2.559 3.258 1.33 1.696q1.372 1.748 2.747 3.493a821 821 0 0 1 7.497 9.65C381.136 344.72 391.642 356.674 407 359v1c-16.463.8-30.381-3.92-44-13v-2h-2c-1.556-1.42-2.952-2.947-4.375-4.5-1.598-1.627-1.598-1.627-3.895-2.559-3.917-2.785-5.722-6.36-8.043-10.503l-1.376-2.366C340 319.302 340 319.302 340 317l-3-1c-2.277-2.372-3.321-4.759-4.375-7.812-1.073-3.07-2.376-5.45-4.312-8.063C326 297 326 297 326 295l-1.73-.781c-3.277-1.76-5.93-4.165-8.758-6.563-3.044-2.007-6.008-2.716-9.512-3.656l.078 2.814q.36 13.13.624 26.263c.092 4.502.195 9.002.323 13.502.124 4.344.218 8.688.292 13.033q.05 2.485.132 4.97c.075 2.322.112 4.642.14 6.966l.094 2.07c0 2.735-.2 4.796-1.97 6.944-2.368 2.065-4.104 3.374-7.268 3.708l-2.32-.457-2.367-.418L292 363v-4l-1.875-.562c-2.574-1.742-2.976-3.206-3.737-6.15-.84-4.956-.664-9.985-.647-14.997l-.01-3.84c-.01-3.462-.006-6.922 0-10.383.005-3.63 0-7.262-.002-10.893q-.006-9.144.01-18.288.015-10.554-.003-21.109-.014-9.08-.006-18.16.007-5.416-.003-10.831c-.006-4.026.003-8.052.014-12.078l-.012-3.602c.034-6.57.29-12.145 3.271-18.107h3z"/><path fill="#cda167" d="M536.82 213.66c2.433 1.025 4.607 1.822 7.18 2.34v2l1.734.813C560.64 226.625 568.012 240.642 573 256c5.967 20.931 5.55 49.968-4.581 69.57-6.603 11.718-15.484 21.087-27.419 27.43l-2.61 1.39c-13.55 6.656-29.082 8.937-43.746 12.046q-3.478.743-6.949 1.513l-3.632.801-3.028.672c-7.21 1.373-14.09 1.71-21.41 1.64l-2.73-.013q-2.48-.013-4.959-.033Q449.968 371 448 371c5.796 6.923 12.983 10.636 22.031 11.484 9.316.483 17.094-1.284 25.807-4.67 4.34-1.634 8.76-3.046 13.162-4.502l2.68-.9c12.563-4.21 24.32-6.509 37.32-2.412l3.375 1.063C560.86 374.988 567.8 381.745 572 390v2h2l1 6h-2l-1.5-2.187c-3.513-3.952-7.677-5.774-12.5-7.813l-2.598-1.129c-4.99-1.277-9.835-1.167-14.965-1.121l-3.258.018c-10.943.137-20.935 1.742-31.523 4.548-15.729 4.048-32.092 2.77-46.531-4.691-8.657-5.242-14.573-12.216-20.125-20.625v-2h3v2c6.34 2.49 11.948 3.547 18.75 3.5l2.702-.002c10.178-.22 19.81-2.695 29.548-5.498l-3.41-.516c-20.855-3.252-39.038-7.766-53.453-24.511C431.204 329.72 426.566 319.84 424 310l-1.027-3.656c-1.138-4.6-1.463-9.12-1.66-13.844l-.117-2.639c-.69-18.724 2.032-36.045 10.804-52.861h2l.688-2.125c1.65-3.616 3.603-5.963 6.312-8.875h2v-2c5.154-4.397 10.334-7.696 17-9v-2c2.998-.821 5.998-1.63 9-2.437l2.543-.698c21.075-5.636 45.256-4.934 65.277 3.795M461 222l-1.945.805C453.28 226.164 448.335 233.872 446 240v4h-2q-.979 4.185-1.937 8.375l-.553 2.348c-4.405 19.381-3.684 39.94.49 59.277l.656 3.387C445.716 331.61 454.813 344.84 467 353a78 78 0 0 0 5 2l3.688 1.5c15.604 5.682 35.374 5.701 50.625-1.25C537.96 348.644 547.25 338.604 552 326l1-2.395c5.503-13.304 6.152-25.883 6.063-40.168q-.009-2.106-.014-4.212-.018-5.113-.049-10.225h-2l-.078-2.316c-.793-14.972-4.358-30.439-14.922-41.684-6.385-5.607-11.799-5.383-20-5-6.343.995-10.742 5.432-15 10-3.268 5.413-4.727 11.693-4 18 1.526 3.324 3.287 6.246 5.336 9.273 2.86 4.688 3.051 9.306 2.664 14.727-1.7 3.824-3.138 5.489-7 7-2.875.336-2.875.336-6 .375l-3.125.086c-3.6-.577-4.689-1.591-6.875-4.461-1.772-4.167-2.137-8.04-1.5-12.5 1.656-3.863 3.722-7.074 6.16-10.484 2.638-3.969 2.71-7.358 2.34-12.016-2.318-8.573-6.668-15.433-14.375-20-7.39-2.039-12.843-1.458-19.625 2"/><path fill="#e4aa27" d="M108 209.813c4.506 3.837 6.093 9.77 8 15.187q.81 2.126 1.625 4.25L119 233c1.82 5.076 1.82 5.076 4 10 .04 2.333.043 4.667 0 7h2v4h2l.533 1.617A978 978 0 0 0 133.5 273c2.012 5.712 3.993 11.43 5.87 17.188.61 1.878.61 1.878 1.63 3.812.04 2.333.043 4.667 0 7h2q1.007 2.904 2 5.813l1.125 3.269C147 313 147 313 147 316h2l.988 3.438 1.325 4.562.646 2.254a161 161 0 0 0 4.298 12.795c1.221 3.207 2.33 6.45 3.43 9.701l.682 1.957c1.124 3.328 1.631 5.73 1.631 9.293-6.68.326-12.19.585-18-3-1.25-2.125-1.25-2.125-2-5q-.808-2.283-1.625-4.562C139.264 344.264 139 342.49 139 339h-2l-.988-3.219-1.325-4.281-.646-2.11a204 204 0 0 0-4.28-12.376c-1.584-4.19-3.032-8.43-4.511-12.659l-.75-2.136-.738-2.106c-.781-2.167-1.614-4.31-2.45-6.457C120 290 120 290 120 287h-2l.219 2.027c1.457 15.083 1.4 28.458-3.219 42.973l-.84 2.648c-2.527 6.638-7.291 11.316-12.16 16.352l-2.375 2.875c-10.251 8.299-25.55 8.12-38.052 7.433-6.856-.82-11.206-4.466-15.483-9.601-6.692-9.444-7.117-18.45-6.09-29.707.916-4.207 2.395-8.014 4-12 .886-2.594 1.722-5.204 2.563-7.812 1.182-3.617 2.407-7.12 3.914-10.614 1.674-3.928 3.02-7.89 4.336-11.949a885 885 0 0 1 6.374-18.75l.72-2.04a531 531 0 0 1 3.581-9.8c1.56-4.138 3.043-8.301 4.512-12.472l.8-2.258a274 274 0 0 0 3.763-11.368c1.809-5.449 4.355-10.323 8.937-13.875 7.242-3.078 17.586-3.346 24.5.75M80 216a67 67 0 0 0-2.73 6.781l-.771 2.147q-.829 2.314-1.642 4.633a882 882 0 0 1-2.637 7.376c-1.551 4.3-3.08 8.609-4.6 12.92a1465 1465 0 0 1-1.893 5.329 1684 1684 0 0 0-2.778 7.845l-.855 2.374c-1.705 4.892-2.62 9.433-3.094 14.595h-2c-10.191 26.5-10.191 26.5-7 54a90 90 0 0 0 2 4h4v2l3 1 1.438 1.5c3.95 3.793 10.643 2.722 15.75 2.75l2.751.063c10.174.058 19.433-2.868 26.858-10.051 2.715-3.02 4.432-5.21 5.203-9.262h2c8.265-22.457 3.37-47.892-4-70h-2l-.113-1.687-.2-2.313-.175-2.25c-.556-2.988-1.549-5.677-2.654-8.502-.917-2.402-1.735-4.823-2.542-7.264l-.873-2.601a606 606 0 0 1-1.75-5.313c-2.076-6.382-2.076-6.382-6.693-11.07-2.25-.516-2.25-.516-4.562-.312l-2.317.074c-2.307.184-2.307.184-5.121 1.238"/><path fill="#f1d38c" d="M292 208c57.192-1.033 57.192-1.033 74.813 15.188 5.539 6.02 9.88 13.537 10.187 21.812l.113 2.074c.286 8.609-.98 16.82-6.113 23.926l-1.324 1.89c-5.162 6.606-15.104 14.925-23.676 16.11a195 195 0 0 1-7 0c2.353-2.724 4.625-3.814 8-5v-2l2.313-1.75c6.225-5.212 7.545-13.543 8.687-21.25 1.685-17.766 1.685-17.766-4.082-33.969-4.27-4.521-8.628-8.864-14.918-10.031v-2c-7.197-.953-14.245-1.151-21.5-1.125l-3.32-.012-3.149.004-2.857.004c-2.153-.114-2.153-.114-3.174 1.129-.109 1.898-.147 3.8-.158 5.7l-.03 3.753-.017 4.155-.03 4.345q-.04 5.916-.068 11.832c-.022 4.117-.05 8.235-.076 12.352q-.074 11.703-.138 23.406-.076 13.32-.16 26.64-.17 27.41-.323 54.817c-1.933.06-3.867.102-5.8.137l-3.264.077C292 360 292 360 288.813 357.813c-2.779-4.312-2.938-8.296-2.947-13.34l-.013-3.33.002-3.625-.01-3.84q-.013-5.204-.012-10.407-.001-3.255-.006-6.509-.013-11.362-.012-22.724-.001-10.577-.026-21.153-.019-9.093-.018-18.186.002-5.425-.013-10.851c-.012-4.036-.007-8.071 0-12.107-.007-1.192-.012-2.384-.018-3.612.025-6.582.274-12.156 3.26-18.129h3z"/><path fill="#934e23" d="M557.938 231.5c3.062.5 3.062.5 5.25 2.688L565 237l1.453 2.254c12.505 22.2 12.189 52.404 5.89 76.465-4.34 14.86-15.32 28.095-28.609 35.828L541 353l-2.61 1.39c-13.55 6.656-29.082 8.937-43.746 12.046q-3.478.743-6.949 1.513l-3.632.801-3.028.672c-7.21 1.373-14.09 1.71-21.41 1.64l-2.73-.013q-2.48-.014-4.959-.033Q449.968 371 448 371c5.796 6.923 12.983 10.636 22.031 11.484 9.316.483 17.094-1.284 25.807-4.67 4.34-1.634 8.76-3.046 13.162-4.502l2.68-.9c12.563-4.21 24.32-6.509 37.32-2.412l3.375 1.063C560.86 374.988 567.8 381.745 572 390v2h2l1 6h-2l-1.5-2.187c-3.513-3.952-7.677-5.774-12.5-7.813l-2.598-1.129c-4.99-1.277-9.835-1.167-14.965-1.121l-3.258.018c-10.943.137-20.935 1.742-31.523 4.548-15.729 4.048-32.092 2.77-46.531-4.691-8.657-5.242-14.573-12.216-20.125-20.625v-2h3v2c6.34 2.49 11.948 3.547 18.75 3.5l2.702-.002c10.178-.22 19.81-2.695 29.548-5.498l-3.41-.516c-7.785-1.213-15.514-2.537-23.152-4.484l-3.692-.937L461 356l-1-3-1.812-.437c-2.93-.754-4.15-2.39-6.188-4.563l-2-1v-2h-3v-4c4.204.467 6.16.913 9 4l2.313.875c3.458 1.448 5.817 3.733 8.687 6.125 2.376 1.184 2.376 1.184 5 2l3.688 1.5c15.604 5.682 35.374 5.701 50.625-1.25A75 75 0 0 0 530 352l2.164-1.39c8.544-6.05 15.356-14.718 18.836-24.61q1.029-2.47 2.063-4.937c8.24-20.82 5.902-45.674 3.625-67.563l-.357-3.538c-.646-5.593-1.314-10.161-4.331-14.962 1.862-2.483 2.819-2.97 5.938-3.5"/><path fill="#eeb644" d="M166 208c1.894-.136 3.79-.232 5.688-.312l3.199-.176c3.113.488 3.113.488 5.968 2.387 3.022 4.368 2.838 7.827 2.773 13.025l.022 3.018c.018 3.292.002 6.582-.013 9.874q.012 3.444.031 6.888c.029 6.05.03 12.1.022 18.15-.007 9.659.025 19.317.063 28.975.009 3.361.003 6.722-.004 10.083-.174 24.05-.174 24.05 10.231 45.076 7.65 7.62 17.473 9.262 27.864 9.334l3.156-.01 3.156.05c6.38.003 11.032-.723 16.844-3.362l2.758-1.14c9.582-4.492 14.945-11.532 18.592-21.447 1.253-4.65 1.089-9.366 1.082-14.153l.031-3.491c.03-3.788.04-7.575.049-11.363l.054-7.902c.044-6.212.072-12.424.095-18.635.028-7.077.071-14.153.117-21.229q.136-21.82.222-43.64h2q.142 23.21.207 46.42c.02 7.185.049 14.37.095 21.556q.06 9.4.074 18.8.008 4.97.047 9.943c.03 3.71.033 7.42.031 11.13l.044 3.291c-.049 8.983-2.448 16.395-7.498 23.86l-1.562 2.313L260 347h-2l-.687 1.75c-2.85 4.884-7.432 6.954-12.563 8.875l-3.203 1.227c-7.84 2.538-15.057 3.507-23.297 3.46l-2.907-.003c-7.464-.101-14.199-1.044-21.343-3.309v-2l-3.375-.25L187 356c-1.125-1.937-1.125-1.937-2-4l-2.187-.812c-6.277-2.65-10.31-8.139-13.04-14.227-3.849-9.759-3.924-19.837-3.887-30.194v-3.256q.002-5.274.016-10.55l.005-7.356q.006-9.642.024-19.283.014-9.855.02-19.709.016-19.306.049-38.613"/><path fill="#dab579" d="M393 208q2.402-.054 4.805-.086l2.702-.048c3.193.172 5.084 1.046 7.493 3.134v2h2c1.242 2.485 1.123 4.13 1.12 6.91l.004 3.145-.01 3.463v3.636q-.001 4.943-.013 9.886c-.006 3.442-.006 6.884-.008 10.326q-.005 9.78-.021 19.56-.016 11.133-.022 22.266-.016 22.905-.05 45.808c-11.034.148-11.034.148-15.812-3.312-2.44-3.467-2.313-7.734-2.308-11.845l-.004-3.08.01-3.346v-3.55c0-3.868.009-7.737.016-11.605l.005-8.05q.004-9.51.021-19.018.016-10.829.022-21.657.016-22.268.05-44.537"/><path fill="#e4ad34" d="M108 209.813c5.582 4.735 7.796 13.22 9 20.187l-3-1c-1.062-2.652-1.062-2.652-2-5.937-1.247-4.893-1.247-4.893-5-8.063v-3h-2l-1 3h-4l.5 2.438c.398 2.834.457 5.006.313 7.812-.084 5.5 1.951 9.821 4.187 14.75 1.7 3.915 2.2 6.706 2 11h2c1.943 2.915 2.277 3.83 2.563 7.125.004 3.65.004 3.65 1.437 4.875.04 2 .043 4 0 6h2c.96 2.882 1.106 4.699 1.063 7.688l-.028 2.449L116 281h2v3h2v3h-2l.219 2.027c1.457 15.083 1.4 28.458-3.219 42.973l-.84 2.648c-2.527 6.638-7.291 11.316-12.16 16.352l-2.375 2.875c-10.251 8.299-25.55 8.12-38.052 7.433-6.856-.82-11.206-4.466-15.483-9.601-6.692-9.444-7.117-18.45-6.09-29.707.916-4.207 2.395-8.014 4-12 .886-2.594 1.722-5.204 2.563-7.812 1.182-3.617 2.407-7.12 3.914-10.614 1.674-3.928 3.02-7.89 4.336-11.949a885 885 0 0 1 6.374-18.75l.72-2.04a531 531 0 0 1 3.581-9.8c1.56-4.138 3.043-8.301 4.512-12.472l.8-2.258a274 274 0 0 0 3.763-11.368c1.809-5.449 4.355-10.323 8.937-13.875 7.242-3.078 17.586-3.346 24.5.75M80 216a67 67 0 0 0-2.73 6.781l-.771 2.147q-.829 2.314-1.642 4.633a882 882 0 0 1-2.637 7.376c-1.551 4.3-3.08 8.609-4.6 12.92a1465 1465 0 0 1-1.893 5.329 1684 1684 0 0 0-2.778 7.845l-.855 2.374c-1.705 4.892-2.62 9.433-3.094 14.595h-2c-10.191 26.5-10.191 26.5-7 54a90 90 0 0 0 2 4h4v2l3 1 1.438 1.5c3.95 3.793 10.643 2.722 15.75 2.75l2.751.063c10.174.058 19.433-2.868 26.858-10.051 2.715-3.02 4.432-5.21 5.203-9.262h2c8.265-22.457 3.37-47.892-4-70h-2l-.113-1.687-.2-2.313-.175-2.25c-.556-2.988-1.549-5.677-2.654-8.502-.917-2.402-1.735-4.823-2.542-7.264l-.873-2.601a606 606 0 0 1-1.75-5.313c-2.076-6.382-2.076-6.382-6.693-11.07-2.25-.516-2.25-.516-4.562-.312l-2.317.074c-2.307.184-2.307.184-5.121 1.238"/><path fill="#c5965f" d="M504.778 208.595q2.31-.031 4.619-.103c11.724-.357 19.94 1.62 30.603 6.508 2.263.683 2.263.683 4 1v2l1.715.785c2.512 1.336 4.612 2.894 6.848 4.653l2.316 1.808A59 59 0 0 1 560 230l-1 3-5 1c0 3.193.614 4.231 2 7 .41 2.055.41 2.055.633 4.23l.254 2.436.238 2.522.262 2.462c.548 5.475.69 10.849.613 16.35h-1l-.55-3.332c-3.506-22.526-3.506-22.526-16.45-40.668l-1.625-1.75c-3.631-3.3-8.867-2.457-13.441-2.39-7.458.357-11.984 3.785-16.934 9.14-3.245 5.443-4.729 11.681-4 18 1.526 3.324 3.287 6.246 5.336 9.273 2.842 4.656 3.136 9.34 2.664 14.727-2.12 4.011-3.768 6.37-8 8-5.49.717-10.342 1.028-15.125-1.937-3.126-5.106-4.225-9.616-3.375-15.563 1.656-3.863 3.722-7.074 6.16-10.484 2.638-3.969 2.71-7.358 2.34-12.016-1.727-6.149-4.23-10.894-8.73-15.43-1.27-1.57-1.27-1.57-1.641-3.66L483 219c-2.211-1.11-2.211-1.11-4.875-1.687l-2.68-.7L473 216l-3-1c1-2 1-2 3.313-3.187 2.807-.85 3.989-.812 6.687.187l-1 2 2.688-2c3.346-2.02 4.559-2.322 8.312-2 2.634-2.634 11.094-1.367 14.778-1.405"/><path fill="#e3b762" d="M166 208c1.894-.136 3.79-.232 5.688-.312l3.199-.176c3.113.488 3.113.488 5.968 2.387 3.022 4.368 2.838 7.827 2.773 13.025l.022 3.018c.018 3.292.002 6.582-.013 9.874q.012 3.444.031 6.888c.029 6.05.03 12.1.022 18.15-.007 9.659.025 19.317.063 28.975.009 3.361.003 6.722-.004 10.083-.174 24.05-.174 24.05 10.231 45.076 7.65 7.62 17.473 9.262 27.864 9.334l3.156-.01 3.156.05c6.38.003 11.032-.723 16.844-3.362l2.758-1.14c9.582-4.492 14.945-11.532 18.592-21.447 1.253-4.65 1.089-9.366 1.082-14.153l.031-3.491c.03-3.788.04-7.575.049-11.363l.054-7.902c.044-6.212.072-12.424.095-18.635.028-7.077.071-14.153.117-21.229q.136-21.82.222-43.64h2q.142 23.21.207 46.42c.02 7.185.049 14.37.095 21.556q.06 9.4.074 18.8.008 4.97.047 9.943c.03 3.71.033 7.42.031 11.13l.044 3.291c-.049 8.983-2.448 16.395-7.498 23.86l-1.562 2.313L260 347h-2l-.687 1.75c-2.85 4.884-7.432 6.954-12.563 8.875l-3.203 1.227c-7.84 2.538-15.057 3.507-23.297 3.46l-2.907-.003c-7.464-.101-14.199-1.044-21.343-3.309v-2l-3.375-.25L187 356c-1.125-1.937-1.125-1.937-2-4l-2.187-.812c-6.277-2.65-10.31-8.139-13.04-14.227-3.849-9.759-3.924-19.837-3.887-30.194v-3.256q.002-5.274.016-10.55l.005-7.356q.006-9.642.024-19.283.014-9.855.02-19.709.016-19.306.049-38.613m5 3-1 4h-2q-.177 21.45-.26 42.9a4309 4309 0 0 1-.117 19.921c-.055 6.413-.084 12.825-.097 19.238q-.015 3.663-.055 7.327a910 910 0 0 0-.039 10.29l-.054 3.036c.045 6.247 1.264 10.567 4.353 16.01C173 336 173 336 174.029 338.737L175 341c2.041.887 2.041.887 4 1l-1 2c2.94-.184 2.94-.184 6-1 1.436-1.952 1.436-1.952 2-4l-2-3c-1.24-6.046-1.171-12.106-1.205-18.26l-.03-3.372q-.047-5.494-.081-10.99l-.063-7.637q-.074-9.009-.138-18.019-.076-10.262-.16-20.525Q182.153 236.1 182 215l-2.398-.402c-2.907-.668-3.606-1.51-5.602-3.598z"/><path fill="#d8b57a" d="M309 283c9.878.412 16.959 3.282 25 9l2.813 1.75c8.449 5.964 14.854 13.13 21.187 21.25l2.555 3.254 1.332 1.698q1.373 1.748 2.75 3.495c2.522 3.2 5.022 6.414 7.496 9.65C381.136 344.72 391.642 356.674 407 359v1c-16.463.8-30.381-3.92-44-13v-2h-2c-1.556-1.42-2.952-2.947-4.375-4.5-1.598-1.627-1.598-1.627-3.895-2.559-3.917-2.785-5.722-6.36-8.043-10.503l-1.376-2.366C340 319.302 340 319.302 340 317l-3-1c-2.277-2.372-3.321-4.759-4.375-7.812-1.073-3.07-2.376-5.45-4.312-8.063C326 297 326 297 326 295l-1.719-.777c-3.361-1.802-6.127-4.247-9.062-6.664-2.153-1.513-3.65-2.133-6.219-2.559z"/><path fill="#edb442" d="M132 272c2.807 2.807 3.414 6.158 4.5 9.875 1.51 5.32 1.51 5.32 3.648 10.398 1.39 2.818.97 5.65.852 8.727h2q1.007 2.904 2 5.813l1.125 3.269C147 313 147 313 147 316h2l.988 3.438 1.325 4.562.646 2.254a161 161 0 0 0 4.298 12.795c1.221 3.207 2.33 6.45 3.43 9.701l.682 1.957c1.124 3.328 1.631 5.73 1.631 9.293-6.68.326-12.19.585-18-3-1.25-2.125-1.25-2.125-2-5q-.808-2.283-1.625-4.562C139.264 344.264 139 342.49 139 339h-2l-.988-3.219-1.325-4.281-.646-2.11a204 204 0 0 0-4.28-12.376c-1.584-4.19-3.032-8.43-4.511-12.659l-.75-2.136-.734-2.106q-.79-2.175-1.657-4.32C119.9 290.3 119.9 290.3 121 287c2.927 5.55 5.167 11 7 17h1l.262-2.012c.956-6.011 1.92-9.184 6.738-12.988l-1.437-2.312c-2.34-4.58-2.303-9.64-2.563-14.688"/><path fill="#8a3f16" d="M556 373c6.84 4.842 12.175 9.483 16 17v2h2l1 6h-2l-1.5-2.187c-3.513-3.952-7.677-5.774-12.5-7.813l-2.598-1.129c-4.99-1.277-9.835-1.166-14.965-1.121l-3.28.016c-6.35.076-12.416.475-18.665 1.652-4.976.83-9.971 1.299-14.992 1.77l-2.9.29-2.756.252-2.463.232c-2.595.041-4.861-.37-7.381-.962 3.081-4.05 4.993-6.534 10-8 4.927-1.49 9.283-3.594 13.828-5.977C515 374 515 374 517 374v-2h9v-2c9.693-2.31 21.527-2.736 30 3"/><path fill="#a17656" d="M447 341c4.204.467 6.16.913 9 4l2.313.875c3.458 1.448 5.817 3.733 8.687 6.125 2.376 1.184 2.376 1.184 5 2l3.688 1.5c16.22 5.907 35.433 5.25 51.312-1.5v2l-2 1h5c-2.77 2.77-5.865 3.054-9.578 3.84l-2.312.508a1751 1751 0 0 1-7.36 1.59q-2.41.524-4.82 1.052a3264 3264 0 0 1-11.74 2.537q-3.104.672-6.204 1.36c-9.605 2.112-18.52 3.27-28.361 3.175l-2.73-.013q-2.48-.014-4.959-.033Q449.968 371 448 371c5.796 6.923 12.983 10.636 22.031 11.484 9.316.483 17.094-1.284 25.807-4.67 4.34-1.634 8.76-3.046 13.162-4.502l2.68-.9A868 868 0 0 1 519 370c1.208-.396 2.416-.791 3.66-1.2 3.707-.888 6.972-.997 10.778-.925l3.746.055L540 368v1l-14 1v2c-5.625 1.125-5.625 1.125-9 0v2q-1.904.972-3.812 1.938l-2.145 1.09C509 378 509 378 506 379l-2 2-2.25.438c-4.684.958-8.617 2.907-11.75 6.562 5.111.793 8.892.92 14 0 3.335-.09 6.664-.06 10 0v1c-18.24 4.707-36.782 5.457-53.875-3.375-8.657-5.242-14.573-12.216-20.125-20.625v-2h3v2c6.34 2.49 11.948 3.547 18.75 3.5l2.702-.002c10.178-.22 19.81-2.695 29.548-5.498l-3.41-.516c-7.785-1.213-15.514-2.537-23.152-4.484l-3.692-.937L461 356l-1-3-1.812-.437c-2.93-.754-4.15-2.39-6.188-4.563l-2-1v-2h-3z"/><path fill="#faf9f4" d="M523 360v3l-4 2 7 2v2l-1.677.487c-12.03 3.38-12.03 3.38-23.76 7.638-13.347 5.534-27.081 9.106-41.125 3.875-5.526-2.645-9.513-6.348-13.438-11l2-1 2 1c21.535 1.12 41.553-3.212 62.284-8.593 3.673-.946 6.91-1.645 10.716-1.407"/><path fill="#eccc8d" d="M309 283c9.878.412 16.959 3.282 25 9l2.813 1.75c8.45 5.966 14.818 13.156 21.187 21.25a512 512 0 0 0 3.063 3.688L363 321l-1 2-4-1v-3l-5-1-.375 3.438L352 325l-2 1c-.652 2.025-.652 2.025-1 4h2l.75 1.875c1.067 2.28 1.067 2.28 3.313 3.063L357 336c.75 2.625.75 2.625 1 5h-2l-1-2-2.23-1.09c-3.977-2.742-5.753-6.313-8.082-10.473-.455-.78-.91-1.56-1.377-2.365C340 319.302 340 319.302 340 317l-3-1c-2.277-2.372-3.321-4.759-4.375-7.812-1.073-3.07-2.376-5.45-4.312-8.063C326 297 326 297 326 295l-1.719-.777c-3.361-1.802-6.127-4.247-9.062-6.664-2.153-1.513-3.65-2.133-6.219-2.559z"/><path fill="#b8834f" d="M505 229c0 3 0 3-2 5.375-3.453 4.766-2.298 11.039-2 16.625h2l.813 1.813c1.042 2.21 1.042 2.21 2.716 3.56 1.82 2.012 1.955 3.181 2.201 5.857l.245 2.432.212 2.526.249 2.56c.2 2.083.383 4.167.564 6.252-5.309 3.98-8.71 4.695-15.215 4.438C492 280 492 280 488.875 278.063c-3.126-5.106-4.225-9.616-3.375-15.563 1.656-3.863 3.722-7.074 6.16-10.484 1.504-2.072 1.504-2.072 2.34-5.016h2l.078-2.773.172-3.602.14-3.586L497 234c1.984-1.29 1.984-1.29 4-2l1-2z"/><path fill="#fdfbf4" d="m252.938 423.813 2.652-.043C258 424 258 424 261 426v2l7 1c-.687 2.438-.687 2.438-2 5-2.625.813-2.625.813-5 1v2h3v16c-2.73.135-5.455.234-8.187.313l-2.33.126c-4.228.091-5.924.004-9.346-2.709L242 448c-.59-.661-1.18-1.323-1.79-2.004-2.251-3.712-1.714-7.806-1.21-11.996 2.809-6.46 6.92-10.136 13.938-10.187"/><path fill="#cfb182" d="m499 206.875 3.156-.012c5.71.007 11.197.282 16.844 1.137v1l-2.539.076q-4.658.143-9.314.296-3.009.096-6.018.185l-3.809.127-3.523.11c-2.75.024-2.75.024-4.797 1.206l-2.312.438c-2.737.572-5.124 1.463-7.688 2.562v-2l-8 1v2l1.828.367 2.422.508 2.39.492c2.328.625 4.25 1.481 6.36 2.633v3l-2.937-1c-7.438-2.089-13.211-1.359-20.063 2l-2.312.438c-1.85.405-1.85.405-2.625 2.25L455 228a1217 1217 0 0 1-3.762 4.422c-2.7 3.442-4.414 7.294-5.238 11.578h-2l-.148 2.16c-.435 5.563-1.29 10.472-2.852 15.84-1.069 7.491-1.283 15.073-1.562 22.625l-.131 3.332q-.157 4.02-.307 8.043h-1c-2.006-16.795-2.916-33.963 3-50 .663-2.81 1-5.104 1-8h2v-3l1.871-.719c2.677-1.61 3.108-2.891 4.192-5.781 1.336-3.534 1.65-4.309 4.937-6.5-2.448 1.05-4.039 2.039-5.937 3.938-2.19 2.19-4.417 3.475-7.063 5.062l-2.125 2.188C438 235 438 235 435 235c1.528-3.438 3.502-6.19 6-9h2v-2c5.154-4.397 10.334-7.696 17-9v-2c2.998-.821 5.998-1.63 9-2.437l2.543-.698c9.26-2.476 17.906-3.025 27.457-2.99"/><path fill="#e3a72d" d="M108 209.813c5.582 4.735 7.796 13.22 9 20.187l-3-1c-1.062-2.652-1.062-2.652-2-5.937-1.247-4.893-1.247-4.893-5-8.063v-3h-2l-1 3h-4l.5 2.438c.398 2.834.457 5.006.313 7.812-.084 5.5 1.951 9.821 4.187 14.75 1.7 3.915 2.2 6.706 2 11h2c2.68 4.019 2.156 6.242 2 11-2-3-2-3-2-6h-2l-.332-1.687-.48-2.313-.458-2.25c-.774-2.915-1.803-5.684-2.885-8.498-.907-2.418-1.741-4.854-2.564-7.303l-.886-2.615a857 857 0 0 1-1.79-5.352l-.886-2.595-.783-2.337c-1.028-2.252-1.998-3.519-3.936-5.05-2.972-.363-2.972-.363-6.187-.187l-3.293.082L80 216l-.333 2.018c-.823 3.677-2.06 7.16-3.339 10.697l-.804 2.25q-.838 2.345-1.68 4.688c-2.12 5.9-4.215 11.809-6.314 17.716q-.789 2.218-1.582 4.435a2687 2687 0 0 0-2.339 6.575l-.707 1.967c-1.59 4.506-2.8 9.011-3.902 13.654h-2l-.75 3.813c-1.228 5.59-3.197 10.855-5.25 16.187h-3c2.272-7.978 4.994-15.763 7.813-23.562l2.69-7.493 1.306-3.628q2.24-6.245 4.441-12.505l.696-1.976 1.355-3.853q1.14-3.237 2.289-6.471l.804-2.271q.78-2.206 1.566-4.411a259 259 0 0 0 3.603-10.893c1.809-5.449 4.355-10.323 8.937-13.875 7.242-3.078 17.586-3.346 24.5.75"/><path fill="#e4d7a1" d="M268 208h2q.142 23.21.207 46.42c.02 7.185.049 14.37.095 21.556q.06 9.4.074 18.8.008 4.97.047 9.943c.03 3.71.033 7.42.031 11.13l.044 3.291c-.049 8.983-2.448 16.395-7.498 23.86l-1.562 2.313L260 347h-2l-.687 1.75c-2.85 4.884-7.432 6.954-12.563 8.875l-3.203 1.227c-7.84 2.538-15.057 3.507-23.297 3.46l-2.907-.003c-7.464-.101-14.199-1.044-21.343-3.309 2.14-.688 3.55-1.119 5.754-.536 2.857.682 5.5.666 8.437.669l3.612.004 3.76-.012 3.771.012 3.607-.004 3.303-.004c2.846-.008 2.846-.008 5.756-1.129l-3.027-.148-3.91-.227c-1.288-.07-2.576-.14-3.903-.21-1.043-.138-2.086-.274-3.16-.415l-1-2 1.709-.044c2.598-.075 5.194-.172 7.791-.269l2.688-.068c5.916-.24 10.38-1.25 15.812-3.619l2.758-1.14c9.582-4.492 14.945-11.532 18.592-21.447 1.253-4.65 1.089-9.366 1.082-14.153l.031-3.491c.03-3.788.04-7.575.049-11.363l.054-7.902c.044-6.212.072-12.424.095-18.635.028-7.077.071-14.153.117-21.229q.137-21.82.222-43.64"/><path fill="#9a5e39" d="m533.438 367.875 3.746.055L540 368v1l-14 1v2c-5.625 1.125-5.625 1.125-9 0v2q-1.904.972-3.812 1.938l-2.145 1.09C509 378 509 378 506 379l-2 2-2.25.438c-4.684.958-8.617 2.907-11.75 6.562 5.111.793 8.892.92 14 0 3.335-.09 6.664-.06 10 0v1c-19.412 5.01-38.378 5.182-56.293-4.656-1.993-1.569-2.747-3.021-3.707-5.344q2.72.462 5.438.938l3.058.527C465 381 465 381 466 382c10.815.9 19.649-.226 29.838-4.187 4.34-1.633 8.76-3.045 13.162-4.5l2.68-.901A868 868 0 0 1 519 370c1.208-.396 2.416-.791 3.66-1.2 3.707-.888 6.972-.997 10.778-.925"/><path fill="#fefbe6" d="m311.129 210.734 3.139-.007 3.295.023 3.212-.023c6.388.015 12.048.64 18.225 2.273v2c-6.504.125-6.504.125-8.955-.493-3.818-.946-7.756-.692-11.67-.695l-2.64-.037-2.524-.005-2.303-.013c-2.149.076-2.149.076-3.908 2.243-.287 2.779-.287 2.779-.211 6.07l.01 3.863.04 4.192q.01 2.14.017 4.282.021 5.64.065 11.282.063 9.03.096 18.06.016 3.159.045 6.318l.02 3.863.025 3.413C307 280 307 280 306 282l2.703-.07 3.547-.055 3.516-.07c3.062.185 4.676.587 7.234 2.195v2l-5.371-1.562c-2.508-.418-4.757-.481-7.293-.465l-2.46.012L306 284l.078 2.814q.36 13.13.624 26.263c.092 4.502.195 9.002.323 13.502.124 4.344.218 8.688.292 13.033q.05 2.485.132 4.97c.075 2.322.112 4.642.14 6.966l.094 2.07c0 2.735-.2 4.796-1.97 6.944-2.368 2.065-4.104 3.374-7.268 3.708l-2.32-.457-2.367-.418L292 363v-3h12l-.013-5.567q-.06-25.914-.09-51.829-.014-13.323-.048-26.648-.03-11.61-.037-23.22-.003-6.15-.023-12.3-.02-5.785-.015-11.569 0-2.127-.012-4.254c-.01-1.93-.007-3.861-.003-5.792l-.005-3.28c.475-4.902 3.117-4.796 7.375-4.807"/><path fill="#ede3b9" d="M171 424c12.654 0 12.654 0 19 3 2 2 2 2 2.438 5.813-.054 3.67-.313 4.053-3 6.937L187 442c-.167 2.167-.167 2.167 1 4l1.563 1.563L191 449v3c-3.238-1.156-3.978-1.96-5.687-5.062-1.953-3.08-1.953-3.08-4.567-3.551-2.24-.235-4.495-.32-6.746-.387v10h-3z"/><path fill="#d8c073" d="m111 262 2 1v6h2c.96 2.882 1.106 4.699 1.063 7.688l-.028 2.449L116 281h2v3h2v3h-2l.219 2.027c1.457 15.083 1.4 28.458-3.219 42.973l-.84 2.648c-2.52 6.62-7.269 11.356-12.16 16.352l-1.695 1.742A210 210 0 0 1 97 356l-3-1 4-6-2-2h3v-2l-3.84 1.023c-5.345 1.188-10.293 1-15.722.602l-2.768-.172q-3.336-.21-6.67-.453v-1l3.402-.113c11.335-.461 21.493-1.389 30.598-8.887 2.733-3.089 5.153-6.306 7-10h2c4.649-19.497 3.577-39.15-1.414-58.496C111 265 111 265 111 262"/><path fill="#e5ae31" d="M126 254c5.07 7.606 6.3 17.201 7.496 26.098.64 3.688 1.806 6.583 3.504 9.902a91 91 0 0 1-4 4h-2l-1 10h-3l-.77-1.941c-1.602-4.028-3.206-8.041-4.98-11.997C120 287 120 287 120 284h-2v-3h-2l1-3v2h3l-.375-2.562c.419-3.842.741-4.027 3.375-6.5 3.331-3.457 3.406-6.148 3.375-10.875A180 180 0 0 0 126 254"/><path fill="#e5d1a9" d="M393 208q2.402-.054 4.805-.086l2.702-.048c3.193.172 5.084 1.046 7.493 3.134v2h2c1.242 2.485 1.123 4.13 1.12 6.91l.004 3.145-.01 3.463v3.636q-.001 4.943-.013 9.886c-.006 3.442-.006 6.884-.008 10.326q-.005 9.78-.021 19.56-.016 11.133-.022 22.266-.016 22.905-.05 45.808h-1l-2-122c-3.85-.963-5.328-1.063-9 0l-2 2-1-2c.01 1.292.02 2.584.032 3.916.036 4.782.059 9.564.078 14.346q.015 3.108.04 6.216c.025 2.973.036 5.947.045 8.92l.032 2.82v2.608l.014 2.301C396 259 396 259 394 261c-1.242-2.484-1.12-4.131-1.114-6.909v-3.093l.016-3.35.005-3.421c.005-3.618.018-7.235.03-10.852q.009-3.672.014-7.344.017-9.015.049-18.031"/><path fill="#ead9a9" d="M303 246h1v114c-12 0-12 0-15.187-2.187-3.322-5.154-2.953-10.487-2.927-16.459v-2.603q.002-4.245.016-8.49l.005-5.897q.006-7.75.024-15.5.014-7.914.02-15.827.016-15.518.049-31.037h1v79l3 1 .367 2.992.508 3.883.492 3.867c.332 3.33.332 3.33 2.633 5.258 2.584.167 2.584.167 5 0 4.208-13.467 5.512-34.464 1-48h2c-.138-4.125-.287-8.25-.437-12.375l-.12-3.562-.127-3.399-.11-3.142c-.048-2.516-.048-2.516-1.206-4.522.208-1.785.425-3.569.675-5.348.717-5.858.998-11.765 1.387-17.652l.276-4.082q.334-4.959.662-9.918"/><path fill="#f0b13b" d="m225.75 161.75 3.547.11L232 162c.758 2.125.758 2.125 1 5-1.695 2.938-1.695 2.938-4.125 6l-2.383 3.063c-2.376 2.8-4.88 5.358-7.492 7.937a391 391 0 0 0-5.45 6.426L212 192h-2l-.937 1.875L207 198h-2c1.078-8.125 2.89-15.419 6-23l1.008-2.547c3.023-7.284 5.22-11.044 13.742-10.703"/><path fill="#ecbb53" d="M151 326c2.439 4.878 4.199 9.859 6 15l.671 1.911a954 954 0 0 1 2.079 6.026l1.297 3.778C162 356 162 356 162 360c-6.68.326-12.19.585-18-3-1.25-2.125-1.25-2.125-2-5q-.808-2.283-1.625-4.562C139.264 344.264 139 342.49 139 339h-2l-2-9h2l5 12 5-1 2 1v-4h2z"/><path fill="#d5c9aa" d="m280 425 7.188-.312 2.235-.138c3.869-.081 5.46.359 8.542 2.743 2.61 3.473 2.508 5.454 2.035 9.707l-1 3-5 1 1.094 1.898 1.406 2.477 1.406 2.46C299 450 299 450 299 452c-3.234-1.155-3.995-1.99-5.75-5.062-1.875-3.04-1.875-3.04-4.281-3.551-1.98-.234-3.976-.32-5.969-.387v10h-3z"/><path fill="#e6d089" d="M292 208h32v2l-3.395.148-4.418.227-2.236.094c-3.77.204-5.748.395-8.951 2.531a59 59 0 0 0-.512 7.414l-.054 2.211a782 782 0 0 0-.122 7q-.05 2.37-.103 4.742c-.085 3.878-.152 7.755-.209 11.633h-1c-1.805-7.462-2.18-14.53-1.926-22.16.091-3.805.081-6.615-2.074-9.84l-3 1v-3c-3.278.752-3.278.752-5 4l1 2h-2l.016 2.17c.12 19.304-.274 38.541-1.016 57.83h-1v-16h-2a4220 4220 0 0 1-.11-17.987q-.015-3.057-.04-6.113c-.025-2.937-.037-5.873-.045-8.81l-.032-2.74c0-5.93.535-10.967 3.227-16.35h3z"/><path fill="#ad784c" d="M526 212c6.56.39 11.945 1.421 18 4v2l1.715.785c2.512 1.336 4.612 2.894 6.847 4.653l2.317 1.808A59 59 0 0 1 560 230l-1 3-5 1c0 3.193.614 4.231 2 7 .41 2.055.41 2.055.633 4.23l.254 2.436.238 2.522.262 2.462c.548 5.475.69 10.849.613 16.35h-1l-.55-3.332c-3.506-22.526-3.506-22.526-16.45-40.668l-1.437-1.687c-2.266-1.903-4.753-2.501-7.563-3.313v-2h-8z"/><path fill="#ecc86f" d="M184 326c1.782 2.673 2.39 4.138 3.188 7.125 2.328 7.113 6.562 12.848 13 16.75 4.596 2.302 9.4 3.46 14.406 4.547C217 355 217 355 218 356c3.623.285 7.245.45 10.875.621L232 357l1 2c-12.931 3.826-33.744 3.138-46-3-1.121-2.016-1.121-2.016-2-4l-4-2 9-2 1-4-1.89-.246c-2.11-.754-2.11-.754-3.157-2.54-1.63-5.28-2.254-9.687-1.953-15.214"/><path fill="#e6a522" d="M105 212h2v3l1.86.586c3.161 2.088 3.404 4.449 4.39 8.039l1.016 3.602L115 230l-2 1c-.356 2.352-.356 2.352-.437 5.125-.35 4.961-1.31 8.467-3.563 12.875-2.566-1.283-2.58-2.113-3.473-4.781l-.787-2.301-.802-2.418q-.795-2.361-1.598-4.719l-.707-2.123c-.508-1.67-.508-1.67-1.633-2.658a185 185 0 0 1-.062-7.562l.013-2.155q.02-2.64.049-5.283l1.938-.375L104 214z"/><path fill="#e5c68d" d="M349 307v3l1.813.25c2.81.963 3.466 2.384 5.187 4.75l2 1c2.456 1.228 3.494 2.741 5 5l-1 2-4-1v-3l-5-1-.375 3.438L352 325l-2 1c-.652 2.025-.652 2.025-1 4h2l.75 1.875c1.067 2.28 1.067 2.28 3.313 3.063L357 336c.75 2.625.75 2.625 1 5h-2l-1-2-2.366-1.335c-4.497-2.843-6.437-7.372-9.009-11.915l-1.691-2.816c-4.41-7.697-4.41-7.697-3.786-12.106L339 308l1 2 2.813-1.5C346 307 346 307 349 307"/><path fill="#7a2505" d="M556 373c7.02 4.206 12.308 9.743 16 17v2h2l1 6h-2l-1.5-2.187c-7.662-8.62-20.765-10.223-31.5-12.813v-1l6-2-1-5c3.862-1.817 6.74-2.42 11-2"/><path fill="#ddbc67" d="M166 208h12c2.83 2.83 3.376 3.381 4 7h-5l-1-3-5-1-1 4h-2v104l-2-1z"/><path fill="#f7f1d3" d="M138 422q4.156.21 8.313.438l2.38.119 2.295.127 2.11.11C155 423 155 423 158 424v4h-16l1 8h13v4h-15v13h-4q-.037-6.14-.055-12.28-.008-2.09-.02-4.179c-.013-2-.018-4.001-.023-6.002l-.016-3.65C137 424 137 424 138 422"/><path fill="#fbf8e3" d="M267 207h4v117h-1V208h-2l.011 1.815q.134 21.91.196 43.823c.02 7.064.049 14.128.095 21.193.044 6.82.067 13.642.078 20.463q.01 3.897.043 7.796c.03 3.648.033 7.295.031 10.943l.044 3.234c-.05 9.092-2.163 16.945-8.498 23.733.547-3.375 1.055-5.082 3-8q1.025-3.493 2-7l1-1a64 64 0 0 0 .158-4.296l.03-2.81.017-3.105.03-3.252q.046-5.348.081-10.697l.063-7.395q.082-9.752.153-19.505.077-9.944.161-19.887.162-19.526.307-39.053h-2c.875-6.875.875-6.875 2-8"/><path fill="#e5dbbd" d="m252.938 423.813 2.652-.043C258 424 258 424 261 426c1.618 2.64 2 3.84 2 7h-3l-1-3c-4.43-1.477-10.567-1.95-15 0-1.879 5.636-2.015 11.75.438 17.188 3.272 2.314 5.514 2.334 9.44 2.28 2.595-.573 3.51-1.384 5.122-3.468.722-2.606.722-2.606 1-5h-10v-2h14v14c-2.73.135-5.455.234-8.187.313l-2.33.126c-4.228.091-5.924.004-9.346-2.709L242 448c-.59-.661-1.18-1.323-1.79-2.004-2.251-3.712-1.714-7.806-1.21-11.996 2.809-6.46 6.92-10.136 13.938-10.187"/><path fill="#fffce5" d="m298.82 206.797 2.702-.017q2.847-.014 5.694-.02c2.85-.01 5.697-.04 8.546-.072C343.93 206.52 343.93 206.52 353 213l1 2-1.738-.55c-19.765-5.85-39.834-6.108-60.262-6.45v2h-3c-1.97 7.404-2.293 14.283-2.287 21.924l-.032 5.83q-.012 3.105-.017 6.212a3253 3253 0 0 1-.052 12.971c-.053 9.948-.087 19.896-.12 29.844a12413 12413 0 0 1-.116 27.423q-.034 6.45-.044 12.901c-.007 3.292-.027 6.585-.045 9.877l.003 3.62-.025 3.283-.009 2.864C286 349 286 349 284 351q.09-26.86.236-53.72.07-12.47.11-24.943.034-10.87.103-21.74.037-5.756.049-11.511.01-5.42.056-10.837c.013-1.956.011-3.913.01-5.87l.037-3.539.014-3.07c.45-3.241 1.469-5.138 3.385-7.77 3.353-1.676 7.132-1.185 10.82-1.203"/><path fill="#f0e9cb" d="m215 425 3 1c1.387 2.8 1.387 2.8 2.688 6.313l1.324 3.488C223 439 223 439 223 443l3 1 1 8h-4l-1-6-13 1-2 5h-2c1.092-6.885 2.9-12.765 6-19l1.148-2.34A589 589 0 0 1 215 425"/><path fill="#e1c081" d="m404 213 1 2c2.025.652 2.025.652 4 1q.075 11.267.11 22.534.015 3.835.04 7.671c.025 3.669.036 7.337.045 11.006l.032 3.482v3.215l.014 2.84C409 269 409 269 407 271c-2.062-2.25-2.062-2.25-4-5 .3-1.341.643-2.673 1-4 .095-2.72.14-5.407.125-8.125l.012-2.207c.07-3.963.07-3.963-1.137-7.668-.04-2-.043-4 0-6h1z"/><path fill="#864019" d="M562 324c1.563 1.188 1.563 1.188 3 3-.793 8.35-8.344 14.915-14.426 20.078C542.013 353.47 533.65 357.06 523 358l1-2h3v-2c4.589-3.79 9.101-6.045 14.668-8.105 2.194-.842 4.25-1.809 6.332-2.895l-1-3c1.438-2.687 1.438-2.687 3-5l2 1c3.067-.212 4.264-1.215 6.688-3.187 2.536-3.085 3.038-4.886 3.312-8.813"/><path fill="#c6b79b" d="M323 425h2c4.624 8.567 8.249 17.386 10 27l-3-1-1-6h-14l-1 7h-3c.688-4.377 2.198-8.3 3.875-12.375l.777-1.922A638 638 0 0 1 323 425"/><path fill="#cfbb66" d="m84 209 2 1-2 4h7v1l-11 1-1 5a303 303 0 0 1-2.672 7.715l-.804 2.25q-.838 2.345-1.68 4.688c-2.12 5.9-4.215 11.809-6.314 17.716q-.789 2.218-1.582 4.435a2687 2687 0 0 0-2.339 6.575l-.707 1.967c-1.59 4.506-2.8 9.011-3.902 13.654h-2l-.75 3.813c-1.228 5.59-3.197 10.855-5.25 16.187h-3c2.272-7.978 4.994-15.763 7.813-23.562l2.69-7.493 1.306-3.628a2104 2104 0 0 0 5.137-14.481l1.355-3.853q1.14-3.237 2.289-6.471l.804-2.271q.78-2.206 1.566-4.411a259 259 0 0 0 3.603-10.893C76.405 217.334 79.047 212.303 84 209"/><path fill="#a9947e" d="M425 424h20v3h-17v10h15v3h-15v10h17v3h-20z"/><path fill="#905633" d="m533.438 367.875 3.746.055L540 368v1l-14 1v2c-5.625 1.125-5.625 1.125-9 0v2q-1.904.972-3.812 1.938l-2.145 1.09C509 378 509 378 506 379l-2 2-2.25.438c-4.684.958-8.617 2.907-11.75 6.562 5.111.793 8.892.92 14 0 3.335-.09 6.664-.06 10 0v1c-9.518 2.212-18.177 3.447-28 3l2-1-2-4 6-5 2.559-2.445c4.09-3.404 8.861-4.699 13.878-6.243l2.776-.892c2.59-.827 5.187-1.625 7.787-2.42 1.22-.396 2.439-.791 3.695-1.2 3.694-.894 6.948-.997 10.742-.925"/><path fill="#f0dda8" d="M365.75 222.75c2.484 2.297 2.484 2.297 4.25 4.25v2h-4v-3h-2l-.625-1.937c-1.27-2.412-1.27-2.412-4.5-2.813L356 221v7c-2-1-2-1-3.125-3.187-2.864-4.296-7.108-7.988-12.129-9.485L339 215v-2c-6.855-.844-13.663-1.284-20.562-1.562l-3.057-.131q-3.69-.157-7.381-.307v-1q3.75-.255 7.5-.5l2.11-.145c18.012-1.167 34.162 1.218 48.14 13.395"/><path fill="#fefae9" d="m398.438 205.875 2.933-.008c3.4.172 5.22.804 7.879 2.946L411 211c-.25 2.25-.25 2.25-1 4v-2h-2l-2-3-13-2 1 125h-2c-.784-3.461-1.124-6.65-1.12-10.195l-.004-3.106.01-3.374v-3.579q.001-4.843.013-9.686c.006-3.378.006-6.756.008-10.134q.004-9.59.021-19.177.016-10.92.022-21.838.016-22.455.05-44.911c2.595-1.298 4.542-1.133 7.438-1.125"/><path fill="#f3e7da" d="m540.875 384.75 3.145-.062c6.556-.034 11.92.769 17.98 3.312v1l-3.473-.494c-4.34-.54-8.596-.635-12.965-.604l-2.32.005c-2.414.005-4.828.018-7.242.03q-2.475.009-4.95.014-6.024.017-12.05.049v2l-2.125.332-2.875.48-2.812.458c-2.566.587-4.614 1.285-7.016 2.285-4.368 1.693-8.277 1.866-12.922 1.757l-2.359-.025c-6.414-.132-12.62-.91-18.891-2.287v-3c5.75-.125 5.75-.125 8 1 12.225 1.028 24.143.043 36-3l2.45-.61 2.05-.515c7.48-1.87 14.69-2.087 22.375-2.125"/><path fill="#94755f" d="M476.063 426.813C478 429 478 429 478 432h-2l-1.305-1.98c-1.528-2.261-1.528-2.261-4.14-2.446l-2.68.113-2.695.075c-2.156.005-2.156.005-3.18 1.238a100 100 0 0 0 0 5c4.659 2.082 9.313 3.817 14.18 5.352C478 440 478 440 479 441c.239 7.522.239 7.522-1 10-4.595 2.928-9.747 2.777-15 2-3.187-2.312-3.187-2.312-5-5v-3h2l2 3c3.735 1.58 8.03 1.128 12 1l2-1c.25-2.416.25-2.416 0-5-3.885-2.59-7.662-3.15-12.187-4.121-2.855-.892-4.084-1.477-5.813-3.879-.425-4.078-.313-5.53 2-9 5.316-1.922 11.206-2.062 16.063.813"/><path fill="#cfb080" d="M434 235h1v5h-2l-.375 3.875c-.375 3.875-.375 3.875-2.625 6.125a706 706 0 0 0-1 7l-1.062 2.063c-1.129 1.972-1.129 1.972-.938 4.562 0 5.36-1.338 10.476-2.527 15.684-.492 2.798-.587 5.371-.57 8.21l.01 3.096.024 3.197.014 3.256q.018 3.966.049 7.932c-1.987-2.981-2.273-3.74-2.45-7.105l-.133-2.457-.104-2.625-.117-2.708C420.52 271.285 423.18 253.911 432 237h2z"/><path fill="#bea785" d="M350 425c4 1 4 1 5.676 3.117l1.637 2.758 1.804 2.98L361 437q1.96 3.1 3.938 6.188L368 448l1-23h2v27c-4.345-1.086-4.791-1.504-7.25-4.937l-1.578-2.153C361 443 361 443 361 441h-2q-.972-1.904-1.937-3.812l-1.09-2.145C355 433 355 433 354 430h-2v22h-2z"/><path fill="#fdf9e1" d="M174 427c5.99-.315 9.636.318 15 3 .125 3.375.125 3.375 0 7-2.663 2.663-4.653 2.944-8.36 3.098l-2.39-.036L174 440z"/><path fill="#aa9078" d="M404 425c3.125 1.688 3.125 1.688 5 4 .813 2.75.813 2.75 1 5l-3-1-1-3-3-1v-2c-6.224.11-6.224.11-11.5 3.063-2.192 4.292-3.254 8.3-1.918 12.972 1.319 3.225 1.319 3.225 3.418 5.965 1.621.125 3.249.176 4.875.188l2.68.042c2.703-.06 2.703-.06 5.445-2.23 1.192-2.05 1.192-2.05 2-4h2c-.284 3.312-1.033 5.048-2.937 7.813-3.766 2.69-6.081 2.91-10.622 2.68-4.026-.812-5.688-2.465-8.441-5.493-2.89-4.683-2.64-9.668-2-15 4.187-8.229 9.392-9.02 18-8"/><path fill="#fcfaf0" d="M283 427c9.101-.485 9.101-.485 13.125 1.688C298 431 298 431 298.5 433.563c-.58 2.83-1.2 3.733-3.5 5.437-2.882.96-4.699 1.106-7.687 1.063L283 440z"/><path fill="#ead69c" d="M309 283c9.878.412 16.959 3.282 25 9l3.375 2.063L340 296v3l-1.062-1.437c-2.78-2.242-5.452-2.234-8.938-2.563l1 2c.04 2 .043 4 0 6-3.884-3.508-3.884-3.508-4.5-6.125L326 295a282 282 0 0 0-4-2c-2.308-1.76-4.54-3.596-6.781-5.441-2.153-1.513-3.65-2.133-6.219-2.559z"/><path fill="#b29780" d="M440 363h3v2c6.454 2.561 12.136 3.514 19.063 3.438l2.747-.008c7.428-.147 14.049-1.5 21.135-3.653C489 364 489 364 492 365v2q-3.25.725-6.5 1.438l-3.656.808c-7.507 1.473-14.592 1.89-22.219 1.817l-2.73-.014q-2.48-.014-4.959-.033Q449.968 371 448 371c4.414 4.806 4.414 4.806 10 8l-2 2v-2h-2l-1 2c-13-14.226-13-14.226-13-18"/><path fill="#f0da8f" d="M287 262h1l.184 3.465.253 4.473.12 2.287c-.117 3.694-.117 3.694 1.443 6.775.114 2.616.164 5.204.168 7.82l.012 2.434q.013 3.936.007 7.871l.003 2.678c-.002 13.834-.547 27.448-2.19 41.197h-1z"/><path fill="#deb24c" d="m225.75 161.75 3.547.11L232 162c.621 2.355.621 2.355 1 5-1.937 2.313-1.937 2.313-4 4v-3h2l-1-3c-3.379-.285-6.633-.46-10 0-2.23 2.32-2.23 2.32-3 5l2 1-2.312 1.25c-4.078 4.172-4.604 9.143-5.688 14.75l2-1 3 1a105 105 0 0 1-4 5h-2l-.937 1.875L207 198h-2c1.078-8.125 2.89-15.419 6-23l1.008-2.547c3.023-7.284 5.22-11.044 13.742-10.703"/><path fill="#cba97b" d="m379 343 3.5 2.625 2.215 1.652a254 254 0 0 1 4.351 3.352c5.59 4.364 10.794 7.29 17.934 8.371v1c-10.967.534-22.212-.66-32-6l-1-3c2.915-.81 4.461-1.218 7.313-.062L383 352l1-2-5-2z"/><path fill="#dfb636" d="M171 211h2l-.48 2.128c-.539 2.976-.728 5.807-.836 8.829l-.127 3.37-.12 3.486-.13 3.544q-.159 4.322-.307 8.643h-2v64h-1v-90h2z"/><path fill="#c9b288" d="M393 259h1l.06 2.69c.392 16.89.913 33.758 1.94 50.623l.127 2.126c.444 9.341.444 9.341 1.873 18.561 1.952 1.436 1.952 1.436 4 2v1c-4.466.362-4.466.362-6.75-1.187-2.783-4.036-2.372-8.983-2.364-13.715v-2.041q.002-3.32.016-6.639l.005-4.62q.006-6.063.024-12.127.014-6.195.02-12.388.016-12.142.049-24.283"/><path fill="#eee3ba" d="M268 286h1q.365 8.696.647 17.395.102 2.954.228 5.906c.12 2.845.21 5.69.297 8.535l.129 2.627c.203 8.392-2.613 15.607-7.301 22.537l-1.562 2.313L260 347h-2l-.723 1.953C256 351 256 351 253.941 351.61l-2.379.141-2.37.172c-1.73.062-3.461.078-5.192.078 2-2 2-2 5.688-3.125C256.375 346.492 260.9 340.198 264 334c2.627-6.049 3.461-10.97 3.512-17.531l.054-2.656c.054-2.771.088-5.542.122-8.313q.05-2.835.103-5.672c.085-4.61.152-9.218.209-13.828"/><path fill="#edcf83" d="m198 349 1.871.805c5.098 2.126 9.982 3.779 15.414 4.8C217 355 217 355 218 356c3.623.285 7.245.45 10.875.621L232 357l1 2c-5.586 1.684-11.472 1.184-17.25 1.188l-3.645.037c-6.397.01-11.991-.301-18.105-2.225v-1c4.516-.077 8.59-.102 13 1v-2l-3.375-.687C200 354 200 354 198.773 351.418z"/><path fill="#b2895f" d="m445 328 3 1c.933 1.9 1.86 3.802 2.75 5.723 2.148 3.914 5.195 7.05 8.25 10.277l-4 1-.625-1.937c-1.27-2.412-1.27-2.412-4.5-2.813L447 341v4h3v2l2.375.813C455 349 455 349 457 352l3 2c-4.493-.532-7.106-2.235-10.687-4.937l-2.887-2.153C444 345 444 345 442 343v-3h4l-.5-2.062c-.57-3.354-.567-6.542-.5-9.938"/><path fill="#ecddcc" d="M556 264h1v5h2q.074 6.079.11 12.158.015 2.06.04 4.12c.145 11.578-.96 22.282-4.15 33.41l-1 3.574C553 325 553 325 551 326c-.125-6.75-.125-6.75 1-9h2v-7h2z"/><path fill="#b1814f" d="M526 212c6.56.39 11.945 1.421 18 4v2l4 2c-2 1-2 1-5.125.063L540 219l2 6-1.562-.812c-3.102-1.511-6.26-2.844-9.438-4.188v-2h-8z"/><path fill="#ae7d4c" d="M447 341c4.204.467 6.16.913 9 4l2.313.875c3.458 1.448 5.817 3.733 8.687 6.125 2.712 1.305 2.712 1.305 5 2l-3 1v2l-8-1-1-3-1.812-.437c-2.93-.754-4.15-2.39-6.188-4.563l-2-1v-2h-3z"/><path fill="#eab13b" d="M105 340v3l3 1c-3.509 4.184-7.08 8.196-11 12l-3-1 4-6-2-2h3v-2l-3.84 1.023c-5.345 1.188-10.293 1-15.722.602l-2.768-.172q-3.336-.21-6.67-.453v-1l2.292-.136c3.445-.212 6.889-.444 10.333-.676l3.605-.213 3.497-.245 3.205-.206c4.43-.757 7.582-3.524 12.068-3.524"/><path fill="#b39069" d="m507 227 3 1-1.875 2.5c-3.509 5.276-4.65 11.22-4.125 17.5 1.457 3.098 1.457 3.098 3.438 6.063 3.95 6.202 4.84 10.595 4.562 17.937l-1 2h-2l-.297-3.867q-.225-2.505-.453-5.008l-.187-2.55-.235-2.442-.19-2.254c-.485-2.086-.485-2.086-2.69-3.137L503 254v-3h-2c-1.72-11.32-1.72-11.32-.023-15.281 1.336-1.781 1.336-1.781 4.023-4.719.707-1.313 1.4-2.636 2-4"/><path fill="#cba56d" d="M408 275h1v62h-6l1-3h2q.037-6.14.055-12.28.008-2.09.02-4.179.017-3 .023-6.002l.016-3.65c.087-2.83.087-2.83-1.114-4.889l2-1z"/><path fill="#fcf6dc" d="m299.016 206.602 2.692-.01a733 733 0 0 1 5.66.017c2.83.016 5.66 0 8.491-.02 28.124-.034 28.124-.034 37.141 6.411l1 2-1.738-.55c-19.765-5.85-39.834-6.108-60.262-6.45v2h-3l-2 9h-1a141 141 0 0 1-.25-4.312l-.14-2.426c.39-2.262.39-2.262 1.85-3.878 3.793-2.067 7.302-1.813 11.556-1.782"/><path fill="#fdf9e1" d="m265 338 2 3c-1.038 2.51-1.766 3.832-4 5.438-2.2 1.414-2.2 1.414-2.75 3.937-2.348 4.932-7.549 7.003-12.5 8.813L245 360l-1.781 1.043c-2.924 1.261-5.299 1.15-8.469 1.082l-3.266-.055L229 362c3.027-1.655 5.904-2.562 9.25-3.375 11.073-2.938 18.785-8.507 25.75-17.625z"/><path fill="#dfd3a6" d="M138 425h19v2h-17v11h15v1h-15v13h-2z"/><path fill="#eae1c0" d="m215 425 3 1c1.352 2.73 1.352 2.73 2.625 6.188.425 1.127.85 2.255 1.29 3.417 1.005 3.145 1.639 6.129 2.085 9.395h-11v-1h8q-.892-2.411-1.812-4.812l-1.02-2.708c-1.13-2.4-2.179-3.764-4.168-5.48l-.25 3.25c-.805 4.024-1.627 5.232-4.75 7.75 1.11-6.306 2.932-11.375 6-17"/><path fill="#e5cd97" d="M357 278v2l2 1 1-3 4 1a1448 1448 0 0 1-6.75 4.438l-1.922 1.275-1.875 1.22-1.714 1.127c-4.125 2.229-8.124 2.029-12.739 1.94 2.353-2.724 4.625-3.814 8-5v-2q1.935-1.007 3.875-2l2.18-1.125C355 278 355 278 357 278"/><path fill="#f0e7d3" d="M324 429c1.8 2.7 2.934 5.067 4.125 8.063l1.07 2.66C330 442 330 442 330 444h-11c.568-5.54 2.629-10.037 5-15"/><path fill="#e5c476" d="M155 338c2.22 3.33 3.384 6.675 4.625 10.438l.695 2.025c1.13 3.394 1.68 5.918 1.68 9.537-6.68.326-12.19.585-18-3-1.375-2.5-1.375-2.5-2-5l-1-3c3 1 3 1 4.313 3.438 2.196 3.335 3.845 3.717 7.687 4.562a145 145 0 0 0 5 0l-.402-2.379c-.93-5.533-1.84-11.062-2.598-16.621"/><path fill="#f9f4d6" d="m65 258 1 4h2c-.573 2.867-.861 3.861-3 6h-1l-1 5h-2l-1 9h-2l1 12-5-1-1 3c-1-2-1-2-.004-5.258q.71-1.937 1.441-3.867l.737-1.996A769 769 0 0 1 57 280h2l.188-3.125C59.97 270.306 62.662 264.143 65 258m0 4 1 3Z"/><path fill="#dcb350" d="m51 355 3.25.938L58 357l1.73.559c3.43.667 6.853.585 10.333.566l2.181.012c3.183-.006 5.715-.123 8.756-1.137 2.226-.225 4.456-.408 6.688-.562l3.574-.254L94 356c-1 2-1 2-2.95 2.852-7.106 2.007-13.938 2.524-21.3 2.648l-2.83.092c-6.478.004-10.938-1.33-15.92-5.592z"/><path fill="#956e53" d="M527 354v2l-2 1h5c-2.393 2.393-3.742 2.577-7.016 3.29l-3.043.663-3.191.672-3.145.695c-4.927 1.058-9.533 2.012-14.605 1.68v-3h9v-2l2.957-.586 3.856-.789 3.832-.773c3.098-.787 5.272-2.852 8.355-2.852"/><path fill="#fcf7eb" d="M470 390c5.75-.125 5.75-.125 8 1 2.251.086 4.505.107 6.758.098l2.01-.005c2.118-.005 4.238-.018 6.357-.03q2.154-.009 4.309-.014 5.283-.017 10.566-.049c-1 2-1 2-4.02 3.11-4.232 1.1-8.315 1.192-12.668 1.14l-2.372-.012c-6.44-.095-12.643-.855-18.94-2.238z"/><path fill="#e5c36e" d="M167 319h1l.297 1.688c.976 4.982 2.415 9.051 4.816 13.515 1.093 2.215 1.581 4.353 1.887 6.797l4-1v3l1.063 2c.937 2 .937 2-.063 5-7.019-6.309-11.037-12.675-13-22-.145-3.01-.123-5.99 0-9"/><path fill="#fdfcfc" d="m177 429 10 1-1 8h-9c-1.125-6.75-1.125-6.75 0-9"/><path fill="#e1b34c" d="M126 254c2.126 3.189 3.021 5.904 4.125 9.563l1.07 3.503C132 270 132 270 132 272h-6l-.75 2.313c-1.36 2.923-2.566 3.987-5.25 5.687-.375-2.562-.375-2.562 0-6 1.336-1.5 1.336-1.5 3-3.062 3.331-3.457 3.406-6.148 3.375-10.875A180 180 0 0 0 126 254"/><path fill="#efc35e" d="M183 333c2.59 1.295 2.96 2.327 4 5 .125 2.75.125 2.75 0 5l4 1-1 5-9 1-2-6 5-1c.692-1.847.692-1.847 1-4l-2-3z"/><path fill="#e6bd62" d="M109 330c1.6 3.2.032 5.723-1 9h2v-4l3-1c-1.002 3.793-1.81 6.715-4 10l-4-1v-3l-1.828.91-2.422 1.152-2.39 1.16c-2.62.864-3.809.708-6.36-.222l2.195-1.066c6.349-3.242 10.56-6.196 14.805-11.934"/><path fill="#f3ead5" d="M352 430h2c1.29 1.645 1.29 1.645 2.625 3.813l1.352 2.144C359 438 359 438 359 441h2l2 5h-3c-2.108-2.888-3-4.385-3-8h-3v13l-2 1z"/><path fill="#c5a577" d="M487 207c3.833-.03 7.667-.047 11.5-.062l3.266-.026c5.847-.018 11.453.197 17.234 1.088v1l-2.539.076q-4.658.143-9.314.296-3.009.096-6.018.185l-3.809.127-3.523.11c-2.75.024-2.75.024-4.797 1.206l-2.312.438c-2.737.572-5.124 1.463-7.688 2.562 1.875-3.875 1.875-3.875 3-5a100 100 0 0 1 5 0z"/><path fill="#f1df9d" d="M287 294h1l1 9h1c.363 12.76-.756 25.309-2 38h-1z"/><path fill="#f7efd9" d="M421 271h1l-.035 2.719c-.118 16.36.67 31.629 6.035 47.281l-2-1v-2h-2l-.375-3.062c-.528-3.88-.528-3.88-1.625-7.313-1.997-7.24-2.093-14.361-2.125-21.812l-.014-2.342c.012-4.267.294-8.268 1.139-12.471"/><path fill="#dab155" d="M95 218h2l.734 2.273c2.481 7.577 5.224 14.982 8.375 22.305 1.072 2.915 1.034 5.34.891 8.422h2c2.68 4.019 2.156 6.242 2 11-2-3-2-3-2-6h-2l-.332-1.687-.48-2.313-.458-2.25c-.773-2.91-1.793-5.68-2.872-8.489-1.595-4.204-3.06-8.454-4.546-12.698l-.97-2.756-.916-2.616-.831-2.368C95 219 95 219 95 218"/><path fill="#e5a620" d="M43 326h3v4h2c1.193 3.877 2 6.916 2 11-2 0-2 0-3.625-1.5L45 338l-1 5-2-2a88 88 0 0 1 .375-7.625l.172-2.14c.141-1.746.296-3.49.453-5.235"/><path fill="#fdf5d4" d="m54 358 1.836.984c4.596 1.476 8.992 1.31 13.789 1.266l2.977-.012C79.22 360.16 85.578 359.721 92 358l-1 3c-7.13 1.566-14.094 2.214-21.375 2.25l-2.304.027c-4.444-.023-8.217-.371-12.321-2.277z"/><path fill="#f0d8a4" d="M309 283c9.25.386 16.237 2.992 24 8-1.812.625-1.812.625-4 1l-3-2v-2c-1.708 1.634-2.935 2.87-4 5l-1.828-1.496-2.422-1.942-2.39-1.933c-2.222-1.534-3.727-2.2-6.36-2.629z"/><path fill="#99633d" d="M556 247c5.068 5.068 4.452 13.471 4.688 20.188l.122 3.084c.238 6.99.16 13.788-.81 20.728h-1l-.06-1.75c-.383-10.68-.86-21.282-2.28-31.88-.465-3.487-.761-6.852-.66-10.37"/><path fill="#f1e6c8" d="m253.063 423.75 2.597-.016C258 424 258 424 261 426c1.618 2.64 2 3.84 2 7h-3l-1-3c-2.71-.903-4.227-1.11-7-1.062l-2.062.027L248 429h-3l1-1-2-2c3.132-1.831 5.448-2.272 9.063-2.25"/><path fill="#f8f2e2" d="M488 205c28.717-.453 28.717-.453 36 2l1 2-38-2z"/><path fill="#debc61" d="M116 313h1a639 639 0 0 1-.312 7.688l-.069 2.185c-.223 4.445-.729 7.537-3.619 11.127l-3 1v4h-2c.549-4.571 1.417-8.674 3-13h2l.402-1.828.535-2.422.528-2.39c.483-2.129.997-4.245 1.535-6.36"/><path fill="#d3b877" d="M58 270c2.567 3.85 1.833 5.586 1 10h-2l-.75 3.813c-1.228 5.59-3.197 10.855-5.25 16.187h-3c2.02-6.955 4.266-13.8 6.688-20.625l.97-2.754Q56.827 273.31 58 270"/><path fill="#836753" d="M478 443h1c.125 5.75.125 5.75-1 8-4.595 2.928-9.747 2.777-15 2-3.187-2.312-3.187-2.312-5-5v-3h2l2 3c3.745 1.585 8.022 1.19 12 1 3.125-1.635 3.125-1.635 3.688-4.125z"/><path fill="#782d06" d="M556 373c2.562 1.777 4.791 3.804 7 6l-2 2-3-1v-2l-11 1-2-4c3.848-1.81 6.761-2.678 11-2"/><path fill="#8d5533" d="M551 326c1.285 2.57.826 3.61.188 6.375l-.52 2.336c-.663 2.272-1.606 4.182-2.668 6.289v2c-3.938 2.317-7.692 4.434-12 6l1.066-1.398a540 540 0 0 0 8.684-11.79l1.734-2.417c1.519-2.4 2.55-4.73 3.516-7.395"/><path fill="#e6c77c" d="M138 290c2.603 2.712 2.995 3.891 3.188 7.75L141 301h2q1.007 2.904 2 5.813l1.125 3.269C147 313 147 313 147 316h2c1.483 3.839 2.224 6.062 1 10l-1.023-2.484-1.352-3.266-1.336-3.234c-1.2-2.915-1.2-2.915-2.445-5.235-1.103-2.327-.985-4.24-.844-6.781h-3c-1.748-5.244-2.194-9.473-2-15"/><path fill="#f5e8ba" d="M118 287h2l.516 1.871c1.512 5.285 3.284 10.187 5.714 15.121C127 306 127 306 127 310l-3-1c-1.158-3.473-1.069-6.36-1-10h-2l-1 9h-1c-.939-7.04-1.108-13.903-1-21"/><path fill="#eee4d4" d="m348 423 7 1-1 4-1-2-3-1v27l2 1h-3c-1.1-3.297-1.114-5.73-1.098-9.2l.01-3.661.026-3.827.013-3.86q.018-4.727.049-9.452"/><path fill="#faf1ce" d="M137 284c1.938.563 1.938.563 4 2 .237 1.623.457 3.251.586 4.887.52 2.653 1.65 4.574 2.976 6.926 2.762 5.165 2.99 9.43 2.438 15.187-1.903-2.855-2.462-4.42-3.125-7.687l-.508-2.45L143 301h-2l-.367-1.828-.508-2.422-.492-2.39c-.544-2.371-.544-2.371-1.703-4.407C137 288 137 288 137 284"/><path fill="#fdfbe2" d="M214 431c3 1 3 1 4.688 4.313C220 439 220 439 220 443h-8q.214-2.157.438-4.312c.08-.801.162-1.602.246-2.426C213 434 213 434 214 431"/><path fill="#f7eddd" d="M401.207 426.79 403 427v2l-3.375.688L396 431c-1.219 2.504-1.219 2.504-2 5-2.125.813-2.125.813-4 1v8c-2.295-3.24-2.232-6.108-1.59-9.96 1.98-6.848 5.971-8.719 12.797-8.25"/><path fill="#daaf52" d="M49 299h1c-.882 7.35-1.94 14.673-3 22l-2-3-1 2h-2c.385-6.67 2.106-16.106 7-21"/><path fill="#b19f88" d="M427 427h1v10h15v3h-15v11h-1z"/><path fill="#9d6a49" d="M496 380c-3.75 3-3.75 3-6 3l-1 3c-1.666.043-3.334.04-5 0l-1-1c-3.596-.032-7.182.069-10.777.16C469 385 469 385 467 383l3.184-.113c9.191-.31 9.191-.31 18.066-2.512 3.7-1.356 4.301-1.52 7.75-.375"/><path fill="#904114" d="M572 283c2.104 3.157 2.255 3.952 2.266 7.563l.007 2.664-.023 2.773.023 2.773-.007 2.664-.007 2.434C574 306 574 306 572 309l-2-1c.095-.687.19-1.374.29-2.082.11-.901.22-1.802.335-2.73l.352-2.708c.258-2.737.258-2.737-1.977-5.48v-2h2z"/><path fill="#f7efde" d="m528.063 219.813 3.097-.043c2.82.228 4.446.777 6.84 2.23-2.66 1.33-4.14.76-7.062.313-6.68-.674-11.476.937-16.723 5.105l-1.59 1.394L510 231l-3-1a483 483 0 0 1 4.688-4.437l2.636-2.497c4.344-3.354 8.387-3.22 13.739-3.254"/><path fill="#a38974" d="M492 365v2c-12.631 2.82-24.113 4.151-37 4v-1l3.375-.297c8.755-.837 17.116-2.044 25.584-4.47 4.752-1.33 4.752-1.33 8.041-.233"/><path fill="#946642" d="M560 232c5.513 5.215 8.198 10.065 10.75 17.188l1.36 3.73C573 256 573 256 572 258l-1-3h-2l-1-8-4 1-.078-1.793c-.379-5.279-1.028-8.313-4.922-12.207z"/><path fill="#f0deb5" d="m356 229 3 1v2h2c.059 3.812.094 7.625.125 11.438.017 1.069.034 2.138.05 3.24.04 6.446-.51 12.09-2.175 18.322h-1c.01-.913.02-1.826.032-2.766q.05-5.103.078-10.204.015-2.205.04-4.408c.025-2.118.037-4.235.045-6.352l.032-3.857c-.218-3.271-.812-5.483-2.227-8.413"/><path fill="#f4e9d3" d="M484 222c1.938 2.188 1.938 2.188 3 4l-5-1v-2h-21c6.278-6.278 15.659-5.111 23-1"/><path fill="#e2bd64" d="M210 178h1v10l2-2 3 1a105 105 0 0 1-4 5h-2l-.937 1.875L207 198h-2c.997-7.04 2.224-13.439 5-20"/><path fill="#f8f2dd" d="m433 235 1 2h-2l-.844 2.574c-1.16 3.437-2.403 6.835-3.656 10.238-1.931 5.373-3.437 10.583-4.5 16.188h-1c-.649-8.47 1.21-14.656 5.11-22.125 1.03-1.932 1.03-1.932 1.265-4.5.625-2.375.625-2.375 2.688-3.687z"/><path fill="#814432" d="M553 385c6.055-.195 6.055-.195 8 0l2 2c2.57.648 2.57.648 5 1l1-3c3 4.75 3 4.75 3 7h2l1 6h-2l-1.5-2.187c-4.714-5.304-11.772-7.866-18.5-9.813z"/><path fill="#fbf8dc" d="M39 326h1l.008 2.64c.34 10.457 3.237 17.727 8.992 26.36l-8-1 1-8h-3z"/><path fill="#f4eedf" d="M314 442h2l-3 10h3l1-7h14v1l-1.863.043c-2.47.146-4.736.35-7.137.957-1.645 2.463-1.645 2.463-3 5-3.687.813-3.687.813-7 1-.928-3.628-1.269-5.41.313-8.875z"/><path fill="#e9d6a2" d="M172 425h9v1l-6 1-1 25h-2z"/><path fill="#cdb489" d="M487 208v1c-6.674 2.158-13.041 4.045-20 5-2.07.76-4.09 1.582-6.105 2.477-2.301.635-3.658.267-5.895-.477l5-1v-2c2.995-.85 5.997-1.677 9-2.5l2.543-.723c5.33-1.446 9.936-2.033 15.457-1.777"/><path fill="#864d2d" d="M559 291h1q.29 2.718.563 5.438l.316 3.058L561 302l-1 1a123 123 0 0 0-.562 5.563l-.254 3.066L559 314l2 1-7 6 .586-2.246c2.275-9.201 3.455-18.338 4.414-27.754"/><path fill="#e3ae29" d="M171 211h2l-.48 2.128c-.539 2.976-.728 5.807-.836 8.829l-.127 3.37-.12 3.486-.13 3.544q-.159 4.322-.307 8.643h-2c-.058-4.25-.094-8.5-.125-12.75l-.05-3.656-.02-3.516-.032-3.237c.225-2.82.769-4.449 2.227-6.841"/><path fill="#9a6d54" d="M540 368v1l-14 1v2c-5.625 1.125-5.625 1.125-9 0v2l-12 2c1-2 1-2 2.727-2.778a395 395 0 0 1 7.46-2.347l2.724-.827c7.542-2.153 14.238-2.75 22.089-2.048"/><path fill="#f4efe0" d="m386 358 3.5.5c7.139.814 14.327.58 21.5.5l-1 3c-8.082.937-15.114 1.154-23-1z"/><path fill="#cdc19c" d="M299 432h1l-1 8-5 1 1.094 1.898 1.406 2.477 1.406 2.46C299 450 299 450 299 452c-4.217-1.506-5.945-4.118-8-8-.062-2.687-.062-2.687 1-5a99 99 0 0 1 5-3c1.328-2.067 1.328-2.067 2-4"/><path fill="#f0e8d6" d="m446 369 1.593.494c3.02.635 5.835.618 8.923.604l3.789-.01 3.945-.026 3.992-.013q4.879-.018 9.758-.049l-3 2-1.687 1.188c-2.845.999-5.021.574-7.954.105-4.434-.55-8.899-.358-13.359-.293h-3c-1.687-2-1.687-2-3-4"/><path fill="#fbf1d4" d="M100.813 336.75 103 337c-1.373 2.745-3.02 3.21-5.75 4.563l-2.61 1.316c-4.226 1.794-8.156 2.247-12.722 2.219l-2.822-.01-2.909-.026-2.966-.013Q69.61 345.03 66 345v-1l3.621-.148c11.393-.514 21.422-6.234 31.192-7.102"/><path fill="#d3bb8b" d="M434 235h1v5h-2l-.25 3.688c-.514 4.174-1.927 6.157-4.75 9.312a132 132 0 0 0-3 6c-1-2-1-2 .145-5.555a437 437 0 0 1 1.668-4.32l.83-2.184c1.305-3.399 2.632-6.727 4.357-9.941h2z"/><path fill="#e7d6c7" d="M464 357q2.032.177 4.063.375l2.285.21C473 358 473 358 476.28 358.97c4.06 1.126 7.981 1.69 12.156 2.156l2.217.262q2.673.313 5.346.613c-2 2-2 2-4.031 2.012l-2.469-.325-2.68-.328L484 363q-2.812-.29-5.625-.562c-2.187-.22-2.187-.22-4.375-.438v-2l-10-1z"/><path fill="#b4926c" d="M369 425h2v27h-3z"/><path fill="#d6b784" d="m446 222 1 2h2c-1.477 3.895-3.459 4.976-7 7l-2.125 2.188C438 235 438 235 435 235c1.528-3.438 3.502-6.19 6-9h2v-2z"/><path fill="#fdf9dc" d="M306 211c3.812-.059 7.625-.094 11.438-.125 1.069-.017 2.138-.034 3.24-.05 6.446-.04 12.09.51 18.322 2.175v2c-3.94.164-6.783.06-10.625-1-4.812-1.258-9.429-1.224-14.375-1.125l-2.637.027c-2.12.024-4.242.06-6.363.098z"/><path fill="#e7b53a" d="m222.383 163.805 2.742.07 2.758.055L230 164l1 4h-2l-.25 2.25c-.89 3.262-2.235 4.56-4.75 6.75l1-7h3v-5c-2.343.256-4.678.593-7 1l-1 2 2 1-5 1c.725-3.627 1.292-5.86 5.383-6.195"/><path fill="#fdf6ea" d="m510 254 .875 1.938c.953 2.214.953 2.214 3.125 3.062.554 12.67.554 12.67-3 18h-3l1.5-2.062c2.435-4.77 1.836-8.595.563-13.688A1139 1139 0 0 0 508 255z"/><path fill="#f9f0d2" d="M211 172c1.215 3.646.66 4.459-.75 7.938-2.278 5.915-3.829 11.892-5.25 18.062h2l1-2v3l-4 1q.174-3.094.375-6.187c.07-1.15.14-2.298.21-3.481.393-3.157 1.17-5.435 2.415-8.332l.438-3.625c.562-3.374.883-4.395 3.562-6.375"/><path fill="#d8b350" d="m111 262 2 1v6h2c.96 2.882 1.106 4.699 1.063 7.688l-.028 2.449L116 281h2v3h2l-1 3-1-1-2 3q-1.256-5.904-2.5-11.812l-.723-3.393-.683-3.252-.635-3C111 265 111 265 111 262"/><path fill="#b38962" d="m538 215 6 1v2l4 2c-2 1-2 1-5.125.063L540 219l2 6-1.562-.812c-3.102-1.511-6.26-2.844-9.438-4.188l4-2v2c1.542-1.375 1.542-1.375 3-3z"/><path fill="#894c2b" d="M523 382c8.627-.207 16.596-.215 25 2v1c-3.792.029-7.583.047-11.375.063l-3.273.025-3.125.01-2.889.016C525 385 525 385 523 384z"/><path fill="#be996a" d="M437 286h1c.34 3.187.67 6.375 1 9.563l.29 2.712c.506 4.94.819 9.76.71 14.725l-1-2h-2c-.994-8.489-.89-16.504 0-25"/><path fill="#ba9b6f" d="M486 224c3.715 1.061 6.61 2.695 9.063 5.738 2.172 5.242 1.257 11.681.937 17.262h-1l-.262-2.09c-1.236-8.27-4.152-14.032-8.738-20.91"/><path fill="#f8eabd" d="M93 217c4.443 2.962 5.072 6.953 6.75 11.875l.996 2.762.926 2.668.847 2.437c.526 2.47.29 3.892-.519 6.258-3.592-4.737-5.004-8.901-6.187-14.687-1.202-5.71-1.202-5.71-2.813-11.313"/><path fill="#fef9ed" d="M428 440h11c-4 2-4 2-8 2l-1 7 2.063-1.125c3.873-1.154 6.193-.196 9.937 1.125v1h-14z"/><path fill="#fcfae7" d="m191 437 1 2-1.5 1.875c-1.692 1.964-1.692 1.964-1.5 4.125h4c.93 2.606 1.15 3.642.063 6.25L192 453h-6l1-4 4 3c-1.522-2.629-2.844-4.844-5-7 .375-2.125.375-2.125 1-4h2z"/><path fill="#af8869" d="M553 237c3.8 3.8 3.758 8.105 4.188 13.188l.248 2.462c.517 5.47.636 10.858.564 16.35h-1l-.351-2.415q-.791-5.418-1.587-10.835l-.552-3.8-.537-3.653-.492-3.364c-.418-2.851-.418-2.851-1.104-5.264L552 238z"/><path fill="#f2ead4" d="M453 229c0 2.91-.39 4.354-1.437 7a143 143 0 0 0-2.563 7h-2l-1 5h-2l-1 3 1-7h2l.125-3c.66-4.967 3.718-8.283 6.875-12"/><path fill="#885332" d="M536 349v3l3 2c-5.451 2.239-10.132 3.476-16 4l1-2h3v-2c1.46-1.29 1.46-1.29 3.375-2.625l1.898-1.352C534 349 534 349 536 349"/><path fill="#dbb95e" d="M117 230c1.653 2.479 2.582 4.317 3.563 7.063.738 2.053 1.46 3.984 2.437 5.937.04 2.333.043 4.667 0 7h2v4h-2c-2.38-3.569-2.743-6.46-3.437-10.625-.476-2.621-.476-2.621-2.563-5.375-.258-2.695-.089-5.285 0-8"/><path fill="#a87955" d="m454 379 11 2 2 7c-10.51-4.018-10.51-4.018-13-9"/><path fill="#ddb755" d="M47 322h1l4 16h4v2l4 1v2c-5.75-.75-5.75-.75-8-3l-1.5-1.187C46.527 334.012 46.793 327.89 47 322"/><path fill="#d6bdae" d="M557 299h1c.588 6.469-.568 11.834-2.375 18l-.67 2.322c-.585 1.914-1.263 3.8-1.955 5.678l-2 1c-.125-6.75-.125-6.75 1-9h2v-7h2z"/><path fill="#eee0d1" d="m547 367 2.813 1.125L552 369v2l3 1a134 134 0 0 1-10.312-2c-4.547-1.036-9.048-1.558-13.688-2v-1a293 293 0 0 1 5.188-1.125l2.917-.633c3.285-.275 4.962.331 7.895 1.758"/><path fill="#cdb593" d="M439 296h1l.586 3.621c1.917 11.746 1.917 11.746 4.414 23.379l-3-3-2 1z"/><path fill="#dab24d" d="M105 210c2.67.745 3.936 1.207 6 3 2.937 5.361 4.966 10.976 6 17l-3-1c-1.062-2.652-1.062-2.652-2-5.937-1.247-4.893-1.247-4.893-5-8.063v-3h-2z"/><path fill="#e6d9cd" d="M469 437c9.252-.308 9.252-.308 12 2 1.485 3.366.939 5.858-.125 9.25-.84 2.078-.84 2.078-1.875 3.75-2.687 1-2.687 1-5 1l1-2h3v-10l-9-3z"/><path fill="#f3e9df" d="M500 366c-3.727 2.485-7.284 3.176-11.602 4.219L486 371l-1 2v-2l-7-1v-1c3.101-.7 6.206-1.383 9.313-2.062l2.67-.604 2.568-.557 2.364-.523C497 365 497 365 500 366"/><path fill="#f0deb0" d="M254 350c-.938 2.344-1.599 3.73-3.719 5.156-2.905 1.075-4.968.834-8.031.469l-2.984-.336L237 355c3.314-2.21 6.165-2.99 10-4l2.25-.625C251 350 251 350 254 350"/><path fill="#b89670" d="M487 259c1.532 4.084.63 7.795 0 12h3l1 6h2l1 3c-3.094-.92-4.71-1.638-6.75-4.187-2.733-6.15-2.38-10.672-.25-16.813"/><path fill="#f8eedd" d="M491 232c3.125 3.805 3.807 6.358 4.375 11.188-.5 5.091-2.669 8.55-5.375 12.812-.625-1.812-.625-1.812-1-4l2-3h2l-.437-2.45-.563-3.238-.562-3.199A47 47 0 0 1 491 232"/><path fill="#fbf4d0" d="m225.688 159.813 3.011.082L231 160l1 2h-13l-2 4h-2l-2 6h-1v-7l2.313-.812c2.683-.95 2.683-.95 4-2.75 2.432-2.072 4.238-1.736 7.375-1.625"/><path fill="#bca58f" d="M408 443h2c-.284 3.312-1.033 5.048-2.937 7.813-4.311 3.079-7.93 2.636-13.063 2.187l1-3 2.082-.262c5.768-.691 5.768-.691 9.918-4.363z"/><path fill="#dfbe7a" d="m353 318 5 1v6h-6zm-3 7 2 1-3 4z"/><path fill="#fcf3d7" d="M224 177c.75 1.688.75 1.688 1 4-1.75 2.5-1.75 2.5-4 5l-1.437 2.313C218 190 218 190 215.313 190.25L213 190c1.375-2 1.375-2 3-4h2l.75-2.375c1.404-2.948 2.257-3.527 5.25-4.625z"/><path fill="#eaae3e" d="M91 348c6.625-.25 6.625-.25 10 2h-4l-.812 2.375C95 355 95 355 92 357c-2.687.125-2.687.125-5 0 3.75-2 3.75-2 6-2v-4h-3z"/><path fill="#f6eedc" d="m392 444 2.125 2c3.31 2.302 4.937 2.366 8.875 2v-2l4-2c-.312 1.875-.312 1.875-1 4-4.184 2.79-8.08 2.853-13 2-2.125-2.5-2.125-2.5-3-5z"/><path fill="#e7d2c3" d="m525 387-6 1v2c-13.633 2.296-13.633 2.296-20 2v-1l3-.586 4-.789 2.08-.41c3.59-.715 7.138-1.496 10.67-2.465C522 386 522 386 525 387"/><path fill="#ebe7d9" d="m477.188 365.375 2.73.336L482 366v1c-6.837 1.781-13.016 2.252-20.062 2.125l-2.913-.027A897 897 0 0 1 452 369v-1l3.613-.148 4.7-.227c.785-.03 1.57-.062 2.38-.094l2.295-.117 2.11-.095c4.211-.706 5.476-2.543 10.09-1.944"/><path fill="#faf6e5" d="M340.5 287.875 342 289l-3 2 1 5c-4.068-1.85-7.01-3.664-10-7 7.385-2.215 7.385-2.215 10.5-1.125"/><path fill="#fcf7df" d="M54 278c1.46 3.842.496 6.39-.812 10.188l-1.083 3.23C51 294 51 294 49 295c-.442-11.276-.442-11.276 3.625-15.812z"/><path fill="#ab8868" d="M508 258h2c3.556 10.889 3.556 10.889 1 16h-2z"/><path fill="#a67c59" d="M549 221q1.909 1.402 3.813 2.813l2.144 1.582A46.6 46.6 0 0 1 560 230l-1 3-4-1v-5l-6-1z"/><path fill="#faf5e4" d="m324 436 3 2-1 5h-7c.25-2.375.25-2.375 1-5 2.063-1.312 2.063-1.312 4-2"/><path fill="#f4e9da" d="m465.383 426.805 2.742.07 2.758.055L473 427l1 2-10 1-1 5-2-1c-.125-2.375-.125-2.375 0-5 2-2 2-2 4.383-2.195"/><path fill="#9f765e" d="M527 354v2l-2 1h5c-2.721 2.721-4.848 2.607-8.625 3.125l-3.602.508L515 361v-3l1.68-.621 2.195-.817 2.18-.808C525.58 354 525.58 354 527 354"/><path fill="#e3ba5b" d="m105 343 3 1c-3.509 4.184-7.08 8.196-11 12l-3-1c1.25-2.5 1.25-2.5 3-5h4l.313-1.812c.776-2.47 1.758-3.51 3.687-5.188"/><path fill="#9a471b" d="M571 270h2c.668 3.922 1.12 7.771 1.25 11.75l.078 2.234C574 286 574 286 571 289z"/><path fill="#965838" d="M571 257c2 1 2 1 3.125 4.063 1.495 5.766 1.594 10.5-1.125 15.937v-10h-2z"/><path fill="#b89367" d="M510 209c2.417-.081 4.832-.14 7.25-.187l2.066-.077c3.276-.047 5.337.053 8.168 1.776L529 212c-5.21.883-8.146 1.3-13-1a127 127 0 0 0-6-1z"/><path fill="#fdfbf7" d="M516 365a79 79 0 0 1 5.063.938l2.785.59L526 367v2c-3.877 1.193-6.916 2-11 2a100 100 0 0 1 0-5z"/><path fill="#bc9a7d" d="m442 342 1.75.938c2.093.988 3.995 1.579 6.25 2.062v2l2.375.813C455 349 455 349 457 352l3 2c-4.466-.537-7.107-2.208-10.687-4.875l-2.887-2.117C444 345 444 345 442 342"/><path fill="#aa9179" d="M444 369c3.698 1.422 5.856 3.81 8.54 6.602 1.665 1.594 3.309 2.57 5.46 3.398l-2 2v-2h-2l-1 2a835 835 0 0 1-3.937-4.312l-2.215-2.426C445 372 445 372 444 369"/><path fill="#c3ae90" d="m393 355 1.793.621C398.837 357 402.769 358.318 407 359v1q-2.844.039-5.687.063l-3.2.035c-2.837-.09-5.357-.449-8.113-1.098z"/><path fill="#c0986b" d="M427 312c2.004 3.006 3.261 5.85 4.625 9.188l1.352 3.292L434 327l-2 2c-3.276-5.815-5.734-10.245-5-17"/><path fill="#e1cea1" d="M344 301c4.3 2.238 6.824 4.897 9.813 8.688l2.394 3.011L358 315h-3a167 167 0 0 1-3-4l-3-1v-3l-4-1z"/><path fill="#dbb556" d="M120 287c2.901 3.178 3.984 6.526 5.234 10.55q.777 2.483 1.657 4.93l.859 2.395.797 2.18C129 309 129 309 128 312l-.988-2.781-1.325-3.719-.688-1.937a369 369 0 0 0-3.811-10.25C120 290 120 290 120 287"/><path fill="#eecc8a" d="m398 210 7 2-1 3-2.375.375c-2.766.416-2.766.416-4.625 2.625l-2-4z"/><path fill="#f2e6ce" d="M487 207v1l-2.055.367A839 839 0 0 0 466 212v-2c6.753-3.859 13.388-3.285 21-3"/><path fill="#f0e7d9" d="m409 425-1 4-1.437-1.437c-3.68-2.244-7.325-2.3-11.563-2.563v-2c9.41-1.702 9.41-1.702 14 2"/><path fill="#f5e5b3" d="m92 358-1 3c-2.892 1.117-5.693 1.117-8.766 1.098l-2.695-.01-2.789-.026-2.836-.013Q70.456 362.03 67 362v-1l2.746-.148C77.085 360.402 84.81 358 92 358"/><path fill="#f8f3d8" d="M376 254h1c.206 5.76-.055 10.536-2 16-2.625 2-2.625 2-5 3 1.036-3.266 2.164-6.368 3.563-9.5 1.33-3.241 2.015-6.039 2.437-9.5"/><path fill="#d9cca9" d="M251 439h13v13h-1c-1.351-4.308-2-7.42-2-12h-10z"/><path fill="#fbf6e2" d="M367 425h1v22l-4-4 2-1-.035-3.21-.027-4.165-.026-2.117c-.025-5.281-.025-5.281 1.088-7.508"/><path fill="#ebdac8" d="M470 390c5.75-.125 5.75-.125 8 1 2.546.232 5.074.419 7.625.563l2.14.13q2.618.158 5.235.307v1h-23z"/><path fill="#fbf7e2" d="M292 360h12v2c-3.353 2.236-3.907 2.173-7.687 1.625l-2.45-.336L292 363z"/><path fill="#fcf7dc" d="M187 334h3c2 3 2 3 2 7l3 1c1.688 3.063 1.688 3.063 3 6-3.334-1.403-5.055-2.97-7.187-5.875l-1.543-2.055c-1.26-2.054-1.832-3.716-2.27-6.07"/><path fill="#856952" d="M473 425c3.063 1.813 3.063 1.813 5 4v3h-2l-1.27-1.984c-1.588-2.297-1.588-2.297-4.43-2.407l-2.988.141-3.011.11L462 428v-2c3.46-1.73 7.216-1.483 11-1"/><path fill="#dfd7b2" d="M249 425c9.49-.158 9.49-.158 12 1 1.721 2.582 2 3.85 2 7h-3l-1-3-3-1-1-2c-3.03-.658-3.03-.658-6-1z"/><path fill="#f8ecc3" d="m136 336 1 3h2l.586 2.484.789 3.266.773 3.234c.727 2.575 1.555 4.692 2.852 7.016-2-1.187-2-1.187-4-3-.25-2.687-.25-2.687 0-5h-2c-1.802-3.83-2.196-6.781-2-11"/><path fill="#c8a575" d="M478.125 216.188c.89.24 1.779.482 2.695.73C483 218 483 218 483.805 220.113L484 222l-7-2v-2h-9c3.438-3.438 5.728-3.075 10.125-1.812"/><path fill="#d6b562" d="m84 209 2 1-2 4h7v1l-11 1-1 3c-.812-1.687-.812-1.687-1-4 2.375-2.687 2.375-2.687 5-5z"/><path fill="#782b17" d="M563 380c1.938.625 1.938.625 4 2 .75 3.125.75 3.125 1 6l-8-1 1-2h2z"/><path fill="#fefae8" d="m257 341 3 1c-5.038 4.89-9.255 7.952-16 10 1-3 1-3 2.707-4.027l2.106-.91c3.382-1.573 5.727-3.193 8.187-6.063"/><path fill="#eee0ce" d="M527 210c9.077-.308 9.077-.308 13 2 1.133 2.078 1.133 2.078 2 4-10.558-3.075-10.558-3.075-15-5z"/><path fill="#ecddce" d="M463 439c1.584.088 3.168.196 4.75.313l2.672.175c2.948.585 4.423 1.436 6.578 3.512.25 2.688.25 2.688 0 5l-.617-1.89c-2-3.051-4.008-3.115-7.508-3.86l-3.32-.734L463 441z"/><path fill="#a28e7a" d="M395 425c4.566-.358 7.93-.602 12 1.688 2.182 2.522 2.726 4.025 3 7.312l-3-1-1-3-3-1-1-2a109 109 0 0 0-7-1z"/><path fill="#f6f1e3" d="m454.504 371.902 3.058.036 3.067.027L463 372v1l-6 1v4c-1.875-.25-1.875-.25-4-1-1.25-2.062-1.25-2.062-2-4 1-1 1-1 3.504-1.098"/><path fill="#96664a" d="M551 326c1.538 3.076.507 5.544-.254 8.8-.96 2.833-2.39 4.394-4.746 6.2-.75-1.625-.75-1.625-1-4a107 107 0 0 1 4-6c.716-1.646 1.403-3.307 2-5"/><path fill="#f1d998" d="M218 356q3.938-.04 7.875-.062l2.262-.026c5.636-.025 5.636-.025 7.863 1.088l-1 3-6 1v-2l3-1-14-1z"/><path fill="#f9ecc5" d="m106 346 1 2-1 3-3 1-2.375 2.5c-2.722 2.592-3.964 3.186-7.625 3.5l1-2h3l1-3c1.848-1.824 1.848-1.824 4.063-3.687l2.222-1.887z"/><path fill="#dfb134" d="M72 346h14l1 3c-5.527.194-9.756-.252-15-2z"/><path fill="#f8f2df" d="m394 333 1.61 1.426c2.907 1.914 5.207 2.276 8.64 2.762l3.266.48L410 338v1l-5.957.684c-2.237.288-2.237.288-5.043 1.316l-1-2-3-1z"/><path fill="#e6c98a" d="M184 326c1.765 2.647 2.54 4.404 3.438 7.375 1.13 3.539 2.464 6.528 4.562 9.625-2.465-.368-3.67-.59-5.266-2.566-2.513-5.097-3.14-8.759-2.734-14.434"/><path fill="#fcf6db" d="m147 313 3 1 1 5h2v11c-1.69-3.381-2.458-5.63-3.125-9.25l-.508-2.703L149 316h-2z"/><path fill="#e7ba63" d="M138 290c2.85 3.21 3.435 5.5 3.688 9.75l.199 2.984L142 305h-2c-1.748-5.244-2.194-9.473-2-15"/><path fill="#883f1b" d="M573 295h1q.079 2.655.125 5.313l.07 2.988C574 306 574 306 572 309l-2-1 .438-2.062c.424-2.217.764-4.45 1.062-6.688.5-3.25.5-3.25 1.5-4.25"/><path fill="#f9f4e1" d="M443.188 223.375 445 224h-2v2a141 141 0 0 1-5 5l-2.312 2.313L434 235v-5h3l.313-2.375c.892-3.406 2.222-4.876 5.875-4.25"/><path fill="#874f31" d="m550 343 4 1c-9.226 7.667-9.226 7.667-15 9v-2c2.905-2.042 4.401-3 8-3v-2h3z"/><path fill="#f3b857" d="M171 318h2v8h2l-1 3h-2l-1 2c-1.297-4.61-.711-8.338 0-13"/><path fill="#ead7af" d="M332 304h2v2h2q.793 2.183 1.563 4.375l.878 2.46C339 315 339 315 338 317c-3.9-4.16-4.892-7.55-6-13"/><path fill="#a37956" d="M560 232c3.263 3.086 6.022 5.935 8 10l-1 2-3-1a78 78 0 0 1-2-5 157 157 0 0 0-3-5z"/><path fill="#faeed3" d="M77 225h1c.286 7.429.286 7.429-2 11h-2l-1 4c-1-2-1-2-.258-4.785l1.133-3.278 1.117-3.285C76 226 76 226 77 225"/><path fill="#fbf2cf" d="m87.688 214.938 2.449.027L92 215l1 2-9-1-1 4h-2v2l-3 1c.813-3.437.813-3.437 2-7 2.882-.96 4.699-1.106 7.688-1.062"/><path fill="#fbf0d2" d="M153 330c4.24 3.392 5.202 6.834 6 12 .125 3 .125 3 0 5-1.865-2.798-2.65-4.757-3.562-7.937-.25-.855-.498-1.71-.754-2.59A217 217 0 0 1 153 330"/><path fill="#e2bd6a" d="M135 330h2a540 540 0 0 1 2 5.188l1.125 2.917c.851 2.817 1.046 4.977.875 7.895-2-3-2-3-2-7h-2z"/><path fill="#fef9ea" d="m120 295 1 4h2v3h-2l.07 2.336.055 3.039.07 3.023C121 313 121 313 119 315z"/><path fill="#ede1bc" d="M309 283c1.626.114 3.25.242 4.875.375.905.07 1.81.14 2.742.21C319 284 319 284 321 286l-3 1 1 2-10-4z"/><path fill="#f9f4db" d="M366 276c0 3 0 3-1.687 5.688C362 284 362 284 359.25 284.313L357 284v2l-4-1 2.336-1.46 3.039-1.915 3.023-1.898c2.627-1.62 2.627-1.62 4.602-3.727"/><path fill="#b89566" d="M494 247h1c.333 4.245.439 6.355-2 9.938L491 259l-3-1z"/><path fill="#ddad3b" d="M170 210q2.188-.04 4.375-.062l2.46-.036C179 210 179 210 181 211c.625 2.063.625 2.063 1 4h-5l-1-3-5-1-1 2z"/><path fill="#fdf8dc" d="M174 443h9l2 4-2-1c-2.333-.04-4.667-.043-7 0l-1 6h-1z"/><path fill="#fefdea" d="M141 440h8l-2 3c-2.625.188-2.625.188-5 0v9h-1z"/><path fill="#eacd96" d="M302 341h1v17l-4 1 .402-1.652c1.276-5.447 2.068-10.78 2.598-16.348"/><path fill="#e5c779" d="m92 344-2 3c-2.063.249-2.063.249-4.57.074l-2.715-.166-2.84-.22-2.863-.186A609 609 0 0 1 70 346v-1a6666 6666 0 0 1 8.188-.5l2.33-.145c3.834-.23 7.639-.417 11.482-.355"/><path fill="#e9dcd2" d="m564 331 2 3-3.809 4.395c-1.4 1.712-1.4 1.712-2.191 4.605l-4-2z"/><path fill="#f0ddc6" d="M345 284c3.188.875 3.188.875 6 2-1 2-1 2-2.625 2.625-3.141.496-6.201.436-9.375.375 1.933-2.025 3.632-3.421 6-5"/><path fill="#d6bd95" d="M440 248h3c.212 5.192-.409 9.127-2 14h-1z"/><path fill="#f4e0b5" d="M345 212c2.962.613 4.38 1.254 7 3h-5l2 4-1.625-.875c-2.728-1.292-5.501-2.21-8.375-3.125v-1h6z"/><path fill="#e0c375" d="M219 162h13l1 5c-1.937 2.313-1.937 2.313-4 4v-3h2l-1-5h-11z"/><path fill="#a99382" d="M458 445h2l2 3c2.416.798 2.416.798 5.125 1.188l2.758.48L472 450v1h-12c-2-3-2-3-2-6"/><path fill="#e5debe" d="M220 436h2l2 9h-11v-1h8z"/><path fill="#f6efdc" d="m286 421 1 2c2.322.407 4.657.744 7 1v1h-14v-2z"/><path fill="#fdfae6" d="M172 423a788 788 0 0 1 7.313-.125c.69-.017 1.38-.034 2.091-.05 3.767-.037 5.38.031 8.596 2.175v2l-1.547-.434c-3.213-.741-6.438-1.175-9.703-1.628l-3.828-.536L172 424z"/><path fill="#e3bd6a" d="m51 355 3.25.938c2.579.73 5.145 1.437 7.75 2.062v2h5v1c-6.754.603-10.703-.704-16-5z"/><path fill="#ddb35f" d="M49 299h1l-2 16h-1c-1.448-9.961-1.448-9.961.375-14.187z"/><path fill="#fdfbe8" d="M206 440h2q-.427 2.159-.875 4.313l-.492 2.425C206 449 206 449 204 452c-1.471-3.825-.454-6.283 1-10z"/><path fill="#fdfcf9" d="m214 435 4 1v7l-4-1z"/><path fill="#f8f5e2" d="m261 428 7 1c-.687 2.438-.687 2.438-2 5-2.625.813-2.625.813-5 1v-2h2z"/><path fill="#f7eed9" d="M387 349c3.313.188 3.313.188 7 1 1.938 2.563 1.938 2.563 3 5l-2 1a962 962 0 0 1-4-2.937l-2.25-1.653L387 350z"/><path fill="#e7cd82" d="m187 350 1 5 5 1c-2 1-2 1-4.562.25C186 355 186 355 185 352c-2-1.209-2-1.209-4-2 3-1 3-1 6 0"/><path fill="#efe9c5" d="M218 428c1.967 2.95 2.654 4.536 3 8l-2 3c-2.875-6.625-2.875-6.625-4-10z"/><path fill="#e0d7c7" d="M473 425a100 100 0 0 1 5 0c1 1 1 1 1.098 2.848L479 434h-4l1-4v2h2c-1.522-2.629-2.844-4.844-5-7"/><path fill="#996136" d="M462 383c4.608.443 7.52.892 11 4l3 2-9-1v-2l-5-2z"/><path fill="#e7d2c5" d="M555 372c2.375.313 2.375.313 5 1l2 3c2.05 1.192 2.05 1.192 4 2l-1 4q-2.505-2.215-5-4.437l-2.812-2.497L555 373z"/><path fill="#e9b440" d="M113 329v5l-3 1v4h-2c.613-6.5.613-6.5 2.5-8.937C112 329 112 329 113 329"/><path fill="#fdf9dd" d="M309 285c5.359.335 9.107 3.571 13 7l1 2h-4l-1-3a88 88 0 0 0-5-3 163 163 0 0 1-4-3"/><path fill="#dac37c" d="M58 270c2.567 3.85 1.833 5.586 1 10l-4 1c.672-3.806 1.727-7.352 3-11"/><path fill="#f5e5bd" d="M108 256c3.002 4.503 4.319 8.578 4 14l-3-1z"/><path fill="#eadfcc" d="M567 241c1.875.563 1.875.563 4 2 1.375 3.438 1.375 3.438 2 7l-2 3a3061 3061 0 0 1-2-5.437l-1.125-3.06C567 242 567 242 567 241"/><path fill="#fbf7e0" d="M360 218h6v3h2l1 5a729 729 0 0 1-3.937-2.875l-2.215-1.617C361 220 361 220 360 218"/><path fill="#7b3b17" d="M531 369q2.156-.04 4.313-.062l2.425-.036C540 369 540 369 543 370v2l-13-1z"/><path fill="#f8ebc5" d="m131 322 2 1c.852 2.723.852 2.723 1.625 6.063.26 1.104.52 2.209.79 3.347.192.855.386 1.71.585 2.59l-3-1z"/><path fill="#dec695" d="M355 315c3.914 1.27 5.79 2.512 8 6l-1 2-4-1v-3l-3-1z"/><path fill="#ceaf7c" d="M444 235h1q.079 2.124.125 4.25l.07 2.39c-.212 2.567-.908 4.152-2.195 6.36h-2l.5-3.312c.567-3.563.567-3.563.5-6.688h2z"/><path fill="#f7e7c4" d="M108 211c2.438.375 2.438.375 5 1 1.354 2.709 1.065 5.01 1 8h2v5c-2.39-2.608-3.281-4.795-4-8.187L111 213l-3-1z"/><path fill="#f8efdd" d="M356 435c1.5 1.313 1.5 1.313 3 3v3h2l2 5h-3c-2.681-3.506-3.495-6.658-4-11"/><path fill="#faf3d6" d="M294 428c2 1.188 2 1.188 4 3 .438 2.563.438 2.563 0 5l-3 2v-7l-2-1z"/><path fill="#faf2d0" d="M198 348h5v2l9 3c-4.285 1.071-4.92.95-8.687-.812l-2.387-1.083C199 350 199 350 198 348"/><path fill="#875030" d="M570 311h1c.081 1.437.14 2.874.188 4.313l.105 2.425c-.355 2.74-1.187 3.554-3.293 5.262-.286-8.571-.286-8.571 2-12"/><path fill="#fdfbe6" d="m348 279 3 1-4 2v2l-6 3c1.488-3.787 3.62-5.774 7-8"/><path fill="#e8d5a9" d="m350 280 1 3c2 1.209 2 1.209 4 2-2.957 1.478-5.742 1.06-9 1 .313-1.875.313-1.875 1-4z"/><path fill="#e4c477" d="M132 272c2.463 2.463 2.768 4.274 3.625 7.625.26 1.003.52 2.006.79 3.04L137 285c-1.953-.648-1.953-.648-4-2-.61-2.602-.61-2.602-.75-5.625l-.172-3.04z"/><path fill="#e2cc98" d="M372 258c2 1 2 1 2.875 3.313.125 2.687.125 2.687-1.812 5L371 268c-.125-7.75-.125-7.75 1-10"/><path fill="#d0ba74" d="M69 239c2 3 2 3 1.54 5.48l-.915 2.708-.898 2.73L68 252c-1.537-2.41-2.098-3.5-1.54-6.36.303-.788.604-1.577.915-2.39l.898-2.422z"/><path fill="#c7b65c" d="M74 229c1.236 3.708.568 4.675-.937 8.188l-1.153 2.73L71 242h-1c1.2-10.2 1.2-10.2 4-13"/><path fill="#fbf9e2" d="M209 446h5l-1.375 1.25c-1.685 1.814-2.618 3.503-3.625 5.75l-4-1h2z"/><path fill="#f7f1d9" d="M244 430h1c.212 5.192-.409 9.127-2 14h-1c-.054-1.77-.093-3.541-.125-5.312l-.07-2.989C242 433 242 433 244 430"/><path fill="#783720" d="M555 373c5.75 3.625 5.75 3.625 8 7l-2 1c-3.754-1.251-4.24-2.565-6-6z"/><path fill="#e0cab3" d="m446 369 1.578.465c3.055.675 6.052.88 9.172 1.098l3.547.253L463 371v1q-2.656.252-5.312.5l-2.989.281C452 373 452 373 449 373c-1.687-2-1.687-2-3-4"/><path fill="#d8bd8d" d="m350 330 1.25 1.875c1.576 2.239 1.576 2.239 3.875 3.063C357 336 357 336 357.75 338.625L358 341c-2 0-2 0-3.508-1.39l-1.617-1.86-1.633-1.828C350 334 350 334 350 330"/><path fill="#ecd6b0" d="M357 265h1c.125 3.375.125 3.375 0 7l-2 2a126 126 0 0 0-2 6l-3-1 1.059-1.54c2.746-4.154 4.56-7.369 4.941-12.46"/><path fill="#fdfae5" d="M283 443h8l1 2-7 1-1 6h-1z"/><path fill="#deccbc" d="M459 424h13v1l-2.555.367-3.32.508-3.305.492c-2.94.396-2.94.396-4.82 2.633z"/><path fill="#ebdcd0" d="M567 382c1.875.125 1.875.125 4 1 1.647 3.607 2.272 5.185 1 9q-1.257-1.932-2.5-3.875l-1.406-2.18C567 384 567 384 567 382"/><path fill="#925b36" d="m508 360 1 2h-4v2h-6v-3z"/><path fill="#ccad83" d="m379 343 8 6c-3.623 1.208-4.641.543-8-1z"/><path fill="#fbf5d4" d="M170 337c3.012 1.506 3.572 4.026 5 7l2 3c-2.375-.187-2.375-.187-5-1-1.86-3.277-2-5.166-2-9"/><path fill="#f0e2cb" d="M423 305h1l.367 1.977c.922 4.81 1.935 9.413 3.633 14.023l-2-1v-2h-2z"/><path fill="#faf9de" d="M41 310h3l-3 12-2-1v-2h2z"/><path fill="#ceb37c" d="M428 251h1c.504 5.294-.81 7.814-4 12-.883-2.467-1.131-3.639-.223-6.14l1.16-2.11 1.153-2.14z"/><path fill="#fcf8ee" d="m491 279 1.5.938c3.48 1.478 6.74 1.686 10.5 2.062-2.341 1.45-3.58 2.043-6.36 1.758l-2.39-.633-2.422-.617L490 282z"/><path fill="#f3e6bb" d="M112 270c2.666 5.234 3.114 9.06 3 15h-1c-2.104-5.13-2.218-9.561-2-15"/><path fill="#a47c5a" d="M543 225h3l1 6h2l-1 4a300 300 0 0 1-2.5-3.312l-1.406-1.864C543 228 543 228 543 225"/><path fill="#dfa737" d="m86 209 2 1v2l5 1-1 3-1-1a236 236 0 0 0-7-1c.875-3.875.875-3.875 2-5"/><path fill="#e2bd67" d="m223 177 1 2-2.437 2.375c-2.55 2.345-2.55 2.345-3.563 4.625h-2v-3h2v-4z"/><path fill="#f9f0e3" d="m474.48 364.926 2.707.387 2.731.363L482 366v1c-4.41 1.102-8.484 1.077-13 1 1.79-2.314 2.489-2.985 5.48-3.074"/><path fill="#b58e6a" d="M467 353c2.625.375 2.625.375 5 1l-3 1v2l-8-1 1.875-.375c2.316-.497 2.316-.497 4.125-2.625"/><path fill="#dac09c" d="M371 333c2.932 2.853 5.643 5.65 8 9-2.375-.187-2.375-.187-5-1-1.25-2.375-1.25-2.375-2-5z"/><path fill="#e8d8c9" d="M554 316c1.392 4.176-.177 6.135-2 10-1.103-3.31-.994-5.655 0-9z"/><path fill="#e8d6c6" d="M572 253h2c1.262 2.525 1.099 4.312 1.063 7.125l-.028 2.758L575 265c-2.234-4.033-2.545-7.45-3-12"/><path fill="#d7be95" d="m441 226 1 2a136 136 0 0 1-3 7h-3c0-4.39 2.128-5.77 5-9"/><path fill="#fbf8e6" d="m450 216 3 2-8 5v-4c2.5-1.75 2.5-1.75 5-3"/><path fill="#eae6c0" d="M186 445c2.5 1.813 2.5 1.813 5 4v3c-2.622-1.049-3.794-1.65-5.25-4.125L185 446z"/><path fill="#f7f2de" d="m320 424 3 1-3 9h-1q-.04-2.22-.062-4.437l-.036-2.497C319 425 319 425 320 424"/><path fill="#8b6c63" d="m571 390 1 2h2l1 6h-2a125 125 0 0 1-4-6h2z"/><path fill="#e6c47f" d="M102 339c-1 3-1 3-3.312 4.25-2.787.778-4.022.737-6.688-.25 6.625-4 6.625-4 10-4"/><path fill="#faebc7" d="M116 326c1.468 3.817.596 6.329-1 10l-3 2z"/><path fill="#fcf6d9" d="M130 263h2c1.423 3.823 2.24 6.913 2 11-3.15-3.423-3.562-6.443-4-11"/><path fill="#d4ae48" d="M107 251h2c2.68 4.019 2.156 6.242 2 11-2.458-3.687-3.012-6.697-4-11"/><path fill="#f8efd1" d="M69 246h1c.39 5.957.39 5.957 0 8l-4 3z"/><path fill="#d6af49" d="m121 245 2 1v4h2v4h-2c-2.29-3.435-2.178-4.985-2-9"/><path fill="#f4e6b7" d="m217 163 2 1-1.875.625c-2.972 1.923-3.255 4.04-4.125 7.375h-1v-7c2.375-1.062 2.375-1.062 5-2"/><path fill="#d0bda6" d="m315 444 2 2c-.375 3.125-.375 3.125-1 6h-3c.523-2.763 1.109-5.326 2-8"/><path fill="#e6dfba" d="m209 443 1 2a136 136 0 0 1-3 7h-2c.523-2.763 1.109-5.326 2-8z"/><path fill="#b9a287" d="M363 443h2l4 7h-3c-2.357-2.532-3-3.472-3-7"/><path fill="#fbfdf9" d="m324 436 2 1-2 5h-2l-1-4z"/><path fill="#f4e8d8" d="M521 367h5v2l-9 2 1-3 3 1z"/><path fill="#f6ecdf" d="m446 361 2 6-5-2v-2l-3-1c3-1 3-1 6-1"/><path fill="#e6aa21" d="m54 344 7 1-2 3-5-1z"/><path fill="#fef8e0" d="M103 337c-1.286 2.572-2.334 3.01-5 4-2.25-.375-2.25-.375-4-1 3.072-2.73 4.904-3.341 9-3"/><path fill="#b79063" d="m437 334 1.875.563c2.167.674 2.167.674 4.125-.563l-2 6h-2c-2-3-2-3-2-6"/><path fill="#b16933" d="m552 228 3 1v3h-2v2l-3-1v-3h2z"/><path fill="#f3e7d7" d="m513 224 2 1-5 6-3-1z"/><path fill="#eecb66" d="M296 210h5v3l-5 2z"/><path fill="#faeec9" d="m231 169 1 2c-2.175 4.694-2.175 4.694-5.187 5.813L225 177c3.75-5.75 3.75-5.75 6-8"/><path fill="#e4bb59" d="M225 170h4c-1.25 3.653-1.671 4.78-5 7z"/><path fill="#9c8f7e" d="M408 443h2c-.25 2.375-.25 2.375-1 5-2.062 1.313-2.062 1.313-4 2 1.875-5.875 1.875-5.875 3-7"/><path fill="#fbf7e0" d="m299 437 1 4-3 1-1 3-2-1v-3l5-1z"/><path fill="#c9a071" d="m390 353 3 1-1 4-5-1 1-2h2z"/><path fill="#ead9c6" d="m533 347 3 2-7 5-2-1c1.313-2 1.313-2 3-4h3z"/><path fill="#f5ead5" d="m378 340 5 2v3h2l-1 2c-4.875-3.625-4.875-3.625-6-7"/><path fill="#fbf7db" d="M269 328h1c.25 2.75.25 2.75 0 6-2 2.375-2 2.375-4 4q.463-2.22.938-4.437l.527-2.497C268 329 268 329 269 328"/><path fill="#f9edca" d="M113 317h2c-.498 3.735-.875 5.812-3 9-.098-6.152-.098-6.152 0-8z"/><path fill="#eaddb2" d="m324 286 9 5-4 1-3-2v-2h-2z"/><path fill="#e2cfa5" d="M370 271c-1.393 3.367-2.979 4.986-6 7 .313-2.375.313-2.375 1-5 3-2 3-2 5-2"/><path fill="#b07949" d="M508 265h1q.079 2.187.125 4.375l.07 2.46C509 274 509 274 507 276l-1-6h1z"/><path fill="#f5ecdc" d="M510 254c2.326 3.634 2.163 6.77 2 11h-1l-.937-3.312A170 170 0 0 0 508 255z"/><path fill="#dbc098" d="m453 217 2 1-5 5-3-2z"/><path fill="#b1865c" d="m526 212 10 1-1 2c-2.562.625-2.562.625-5 1v-3z"/><path fill="#fbf2c5" d="M83.625 207.875 86 208c-1.375 1.5-1.375 1.5-3 3h-2l-1 3c-.625-1.875-.625-1.875-1-4 2-2 2-2 4.625-2.125"/><path fill="#fbf1d5" d="m232 162 3 1c.75 1.938.75 1.938 1 4l-1 2h-3z"/><path fill="#a37c61" d="M496 380c-2 2-2 2-5.625 2.125L487 382c3.054-3.054 5.047-3.227 9-2"/><path fill="#ad8a68" d="m451 376 6 2v3l-1-2h-2l-1 2-2-2z"/><path fill="#e3c875" d="m175 344 5 1 1 5a318 318 0 0 1-6-5z"/><path fill="#c09d79" d="M447 329c2.222 2.222 2.926 4.085 4 7h-4c-1.125-4.75-1.125-4.75 0-7"/><path fill="#c4a981" d="M486 224c4.875 1.875 4.875 1.875 6 3 .04 1.666.043 3.334 0 5-2.12-2.615-4.13-5.196-6-8"/><path fill="#fdfae0" d="M347 219c2.884 1.293 4.872 2.66 7 5l-1 3a997 997 0 0 1-3-3.437l-1.687-1.934C347 220 347 220 347 219"/><path fill="#c3844c" d="M525 213h5l-1 4-4-1z"/><path fill="#d1ac68" d="M467 213h4l-2 4-4-1z"/><path fill="#f7ead9" d="m475 208-3 1v2l-6 1v-2c3.135-1.858 5.375-2.201 9-2"/></svg>